<svg xmlns="http://www.w3.org/2000/svg" xmlns:xlink="http://www.w3.org/1999/xlink" width="500" zoomAndPan="magnify" viewBox="0 0 375 374.999991" height="500" preserveAspectRatio="xMidYMid meet" version="1.0"><defs><clipPath id="e8cc2217a0"><path d="M 164 251 L 213 251 L 213 315.28125 L 164 315.28125 Z M 164 251 " clip-rule="nonzero"/></clipPath><clipPath id="75dc52146e"><path d="M 321 250 L 375 250 L 375 315.28125 L 321 315.28125 Z M 321 250 " clip-rule="nonzero"/></clipPath><clipPath id="8354d3daac"><path d="M 0 59.53125 L 375 59.53125 L 375 237 L 0 237 Z M 0 59.53125 " clip-rule="nonzero"/></clipPath></defs><path fill="#00979c" d="M 19.625 251.257812 L 0.320312 314.210938 L 15.511719 314.210938 L 18.992188 302.484375 L 37.820312 302.484375 L 41.210938 314.210938 L 57.726562 314.210938 L 38.429688 251.257812 Z M 22.808594 289.816406 L 28.542969 270.242188 L 34.210938 289.816406 Z M 22.808594 289.816406 " fill-opacity="1" fill-rule="nonzero"/><path fill="#00979c" d="M 94.019531 285.496094 C 93.789062 285.246094 93.558594 285.011719 93.320312 284.804688 C 93.796875 284.613281 94.257812 284.421875 94.710938 284.21875 C 96.550781 283.378906 98.160156 282.25 99.5 280.867188 C 100.851562 279.484375 101.914062 277.8125 102.65625 275.886719 C 103.394531 274.003906 103.765625 271.828125 103.765625 269.433594 C 103.765625 266.144531 103.171875 263.292969 102 260.957031 C 100.816406 258.605469 99.101562 256.664062 96.910156 255.195312 C 94.78125 253.769531 92.195312 252.742188 89.214844 252.136719 C 86.355469 251.550781 83.132812 251.257812 79.636719 251.257812 L 59.933594 251.257812 L 59.933594 314.210938 L 75.046875 314.210938 L 75.046875 289.609375 L 75.492188 289.609375 C 77.148438 289.609375 78.523438 289.976562 79.707031 290.726562 C 80.878906 291.460938 81.777344 292.5625 82.457031 294.078125 L 91.589844 314.210938 L 109.171875 314.210938 L 98.074219 291.757812 C 96.730469 289.023438 95.402344 286.980469 94.019531 285.496094 Z M 87.445312 273.417969 C 87.007812 274.238281 86.402344 274.929688 85.59375 275.503906 C 84.738281 276.089844 83.679688 276.5625 82.4375 276.871094 C 81.125 277.191406 79.632812 277.355469 77.988281 277.355469 L 75.046875 277.355469 L 75.046875 264.101562 L 78.367188 264.101562 C 81.824219 264.101562 84.394531 264.644531 86.007812 265.714844 C 87.410156 266.65625 88.089844 268.214844 88.089844 270.523438 C 88.089844 271.636719 87.878906 272.578125 87.445312 273.417969 Z M 87.445312 273.417969 " fill-opacity="1" fill-rule="nonzero"/><path fill="#00979c" d="M 153.441406 258.734375 C 150.898438 256.179688 147.691406 254.269531 143.90625 253.050781 C 140.214844 251.859375 135.875 251.257812 131.003906 251.257812 L 111.019531 251.257812 L 111.019531 314.210938 L 128.414062 314.210938 C 134.027344 314.210938 138.9375 313.445312 143.007812 311.949219 C 147.148438 310.417969 150.589844 308.199219 153.265625 305.363281 C 155.925781 302.527344 157.910156 299.058594 159.175781 295.0625 C 160.398438 291.152344 161.015625 286.746094 161.015625 281.984375 C 161.015625 276.796875 160.398438 272.226562 159.160156 268.433594 C 157.910156 264.554688 155.984375 261.292969 153.441406 258.734375 Z M 141.085938 296.988281 C 138.464844 299.910156 134.65625 301.324219 129.453125 301.324219 L 126.128906 301.324219 L 126.128906 264.144531 L 130.25 264.144531 C 133.164062 264.144531 135.609375 264.554688 137.515625 265.363281 C 139.367188 266.15625 140.796875 267.273438 141.890625 268.757812 C 143.007812 270.300781 143.820312 272.226562 144.296875 274.476562 C 144.804688 276.871094 145.058594 279.648438 145.058594 282.703125 C 145.058594 289.257812 143.722656 294.0625 141.085938 296.988281 Z M 141.085938 296.988281 " fill-opacity="1" fill-rule="nonzero"/><g clip-path="url(#e8cc2217a0)"><path fill="#00979c" d="M 197.410156 291.300781 C 197.410156 293.476562 197.21875 295.328125 196.824219 296.8125 C 196.441406 298.191406 195.898438 299.308594 195.191406 300.160156 C 194.515625 300.96875 193.675781 301.542969 192.648438 301.894531 C 191.53125 302.308594 190.101562 302.5 188.398438 302.5 C 186.589844 302.5 185.101562 302.277344 183.96875 301.808594 C 182.882812 301.367188 182.015625 300.75 181.292969 299.898438 C 180.589844 299.03125 180.074219 297.957031 179.78125 296.679688 C 179.457031 295.269531 179.28125 293.621094 179.28125 291.757812 L 179.28125 251.257812 L 164.175781 251.257812 L 164.175781 292.445312 C 164.175781 295.839844 164.601562 298.972656 165.425781 301.71875 C 166.292969 304.585938 167.707031 307.070312 169.660156 309.082031 C 171.601562 311.09375 174.148438 312.652344 177.234375 313.710938 C 180.21875 314.738281 183.839844 315.253906 187.96875 315.253906 C 191.675781 315.253906 195.058594 314.738281 198.058594 313.710938 C 201.117188 312.652344 203.75 311.066406 205.898438 308.980469 C 208.042969 306.890625 209.707031 304.261719 210.839844 301.160156 C 211.957031 298.117188 212.53125 294.5625 212.53125 290.582031 L 212.53125 251.257812 L 197.410156 251.257812 L 197.410156 291.300781 " fill-opacity="1" fill-rule="nonzero"/></g><path fill="#00979c" d="M 220.25 263.921875 L 233.808594 263.921875 L 233.808594 301.453125 L 220.25 301.453125 L 220.25 314.210938 L 262.660156 314.210938 L 262.660156 301.453125 L 249.101562 301.453125 L 249.101562 263.921875 L 262.660156 263.921875 L 262.660156 251.257812 L 220.25 251.257812 L 220.25 263.921875 " fill-opacity="1" fill-rule="nonzero"/><path fill="#00979c" d="M 304.707031 287.128906 L 287.824219 251.257812 L 270.71875 251.257812 L 270.71875 314.210938 L 284.792969 314.210938 L 284.792969 277.664062 L 301.78125 314.210938 L 318.792969 314.210938 L 318.792969 251.257812 L 304.707031 251.257812 L 304.707031 287.128906 " fill-opacity="1" fill-rule="nonzero"/><g clip-path="url(#75dc52146e)"><path fill="#00979c" d="M 367.707031 258.707031 C 363.292969 253.09375 356.675781 250.257812 348.042969 250.257812 C 344.351562 250.257812 340.839844 250.902344 337.589844 252.195312 C 334.292969 253.503906 331.367188 255.53125 328.925781 258.25 C 326.484375 260.941406 324.558594 264.394531 323.191406 268.507812 C 321.839844 272.59375 321.148438 277.472656 321.148438 283.027344 C 321.148438 293.300781 323.324219 301.292969 327.648438 306.789062 C 332.058594 312.402344 338.660156 315.253906 347.292969 315.253906 C 350.984375 315.253906 354.515625 314.605469 357.765625 313.3125 C 361.058594 312.007812 363.96875 309.976562 366.425781 307.273438 C 368.851562 304.585938 370.78125 301.132812 372.160156 297.003906 C 373.515625 292.933594 374.207031 288.054688 374.207031 282.484375 C 374.207031 272.183594 372.015625 264.1875 367.707031 258.707031 Z M 357.765625 291.417969 C 357.324219 293.738281 356.648438 295.695312 355.75 297.238281 C 354.898438 298.707031 353.839844 299.78125 352.53125 300.527344 C 351.21875 301.265625 349.589844 301.644531 347.675781 301.644531 C 343.898438 301.644531 341.265625 300.234375 339.632812 297.339844 C 337.824219 294.179688 336.910156 289.167969 336.910156 282.484375 C 336.910156 279.339844 337.148438 276.515625 337.589844 274.09375 C 338.03125 271.785156 338.707031 269.832031 339.617188 268.289062 C 340.484375 266.804688 341.542969 265.730469 342.851562 264.980469 C 344.148438 264.246094 345.765625 263.878906 347.675781 263.878906 C 351.484375 263.878906 354.117188 265.277344 355.734375 268.15625 C 357.53125 271.328125 358.441406 276.339844 358.441406 283.027344 C 358.441406 286.1875 358.207031 289.007812 357.765625 291.417969 Z M 357.765625 291.417969 " fill-opacity="1" fill-rule="nonzero"/></g><path fill="#00979c" d="M 352.382812 68.066406 L 355.058594 68.066406 L 355.058594 75.109375 L 356.957031 75.109375 L 356.957031 68.066406 L 359.660156 68.066406 L 359.660156 66.320312 L 352.382812 66.320312 L 352.382812 68.066406 " fill-opacity="1" fill-rule="nonzero"/><path fill="#00979c" d="M 366.28125 66.320312 L 364.441406 72.3125 L 362.542969 66.320312 L 360.058594 66.320312 L 360.058594 75.109375 L 361.851562 75.109375 L 361.851562 69.496094 L 363.632812 75.109375 L 365.265625 75.109375 L 366.941406 69.640625 L 366.941406 75.109375 L 368.71875 75.109375 L 368.71875 66.320312 L 366.28125 66.320312 " fill-opacity="1" fill-rule="nonzero"/><g clip-path="url(#8354d3daac)"><path fill="#00979c" d="M 278.792969 236.457031 C 254.839844 236.457031 234.351562 228.390625 216.324219 211.875 C 205.191406 201.683594 196.015625 189.191406 187.574219 176.207031 C 179.132812 189.191406 169.941406 201.683594 158.808594 211.875 C 139.449219 229.609375 117.246094 237.605469 90.949219 236.328125 C 40.800781 236.105469 0.0703125 196.554688 0.0703125 147.976562 C 0.0703125 99.261719 41.023438 59.632812 91.363281 59.632812 C 118.910156 59.632812 142.101562 68.742188 162.265625 87.480469 C 171.941406 96.480469 180.117188 106.921875 187.574219 117.84375 C 195.03125 106.921875 203.207031 96.480469 212.882812 87.480469 C 233.042969 68.742188 256.234375 59.632812 283.78125 59.632812 C 334.117188 59.632812 375.074219 99.261719 375.074219 147.976562 C 375.074219 196.554688 334.351562 236.105469 284.191406 236.328125 C 282.367188 236.414062 280.574219 236.457031 278.792969 236.457031 Z M 205.910156 146.796875 C 215.898438 162.996094 225.601562 178.074219 237.410156 188.890625 C 250.75 201.097656 264.792969 206.121094 282.96875 205.164062 L 283.78125 205.140625 C 316.910156 205.140625 343.867188 179.496094 343.867188 147.976562 C 343.867188 116.457031 316.910156 90.8125 283.78125 90.8125 C 264.21875 90.8125 248.441406 97.007812 234.132812 110.308594 C 223.457031 120.242188 214.632812 132.972656 205.910156 146.796875 Z M 91.363281 90.8125 C 58.230469 90.8125 31.273438 116.457031 31.273438 147.976562 C 31.273438 179.496094 58.230469 205.140625 91.363281 205.140625 L 92.183594 205.164062 C 110.351562 206.121094 124.398438 201.097656 137.730469 188.890625 C 149.542969 178.074219 159.234375 162.996094 169.234375 146.796875 C 160.515625 132.972656 151.691406 120.242188 141.007812 110.308594 C 126.699219 97.007812 110.921875 90.8125 91.363281 90.8125 Z M 91.363281 90.8125 " fill-opacity="1" fill-rule="nonzero"/></g><path fill="#00979c" d="M 287.910156 136.644531 L 287.910156 119.738281 L 270.292969 119.738281 L 270.292969 136.644531 L 253.382812 136.644531 L 253.382812 154.160156 L 270.292969 154.160156 L 270.292969 171.191406 L 287.910156 171.191406 L 287.910156 154.160156 L 304.824219 154.160156 L 304.824219 136.644531 L 287.910156 136.644531 " fill-opacity="1" fill-rule="nonzero"/><path fill="#00979c" d="M 66.027344 136.433594 L 121.640625 136.433594 L 121.640625 154.496094 L 66.027344 154.496094 Z M 66.027344 136.433594 " fill-opacity="1" fill-rule="nonzero"/></svg>