<svg xmlns="http://www.w3.org/2000/svg" xmlns:xlink="http://www.w3.org/1999/xlink" width="500" zoomAndPan="magnify" viewBox="0 0 375 374.999991" height="500" preserveAspectRatio="xMidYMid meet" version="1.0"><defs><clipPath id="b019c93675"><path d="M 21.121094 4 L 354 4 L 354 371 L 21.121094 371 Z M 21.121094 4 " clip-rule="nonzero"/></clipPath><clipPath id="5ad388f620"><path d="M 21.121094 4 L 349 4 L 349 279 L 21.121094 279 Z M 21.121094 4 " clip-rule="nonzero"/></clipPath></defs><g clip-path="url(#b019c93675)"><path fill="#283593" d="M 178.054688 7.015625 C 183.976562 3.699219 191.265625 3.699219 197.175781 7.015625 C 226.429688 23.414062 314.460938 72.777344 343.726562 89.171875 C 349.644531 92.484375 353.289062 98.613281 353.289062 105.25 C 353.289062 138.046875 353.289062 236.757812 353.289062 269.554688 C 353.289062 276.1875 349.644531 282.320312 343.726562 285.636719 C 314.472656 302.035156 226.441406 351.394531 197.175781 367.792969 C 191.257812 371.113281 183.96875 371.113281 178.054688 367.792969 C 148.800781 351.394531 60.769531 302.035156 31.507812 285.636719 C 25.597656 282.320312 21.953125 276.199219 21.953125 269.5625 C 21.953125 236.765625 21.953125 138.054688 21.953125 105.257812 C 21.953125 98.621094 25.597656 92.492188 31.515625 89.171875 C 60.761719 72.777344 148.8125 23.414062 178.054688 7.015625 Z M 178.054688 7.015625 " fill-opacity="1" fill-rule="evenodd"/></g><g clip-path="url(#5ad388f620)"><path fill="#5c6bc0" d="M 24.601562 278.007812 C 22.285156 274.910156 21.953125 271.964844 21.953125 268.003906 C 21.953125 235.398438 21.953125 137.253906 21.953125 104.640625 C 21.953125 98.039062 25.589844 91.941406 31.492188 88.652344 C 60.640625 72.347656 148.375 23.277344 177.523438 6.964844 C 183.425781 3.664062 191.421875 3.734375 197.324219 7.035156 C 226.476562 23.335938 313.914062 71.992188 343.0625 88.292969 C 345.417969 89.617188 347.210938 91.210938 348.816406 93.308594 Z M 24.601562 278.007812 " fill-opacity="1" fill-rule="evenodd"/></g><path fill="#ffffff" d="M 187.621094 65.488281 C 254.996094 65.488281 309.691406 120.113281 309.691406 187.40625 C 309.691406 254.695312 254.996094 309.324219 187.621094 309.324219 C 120.246094 309.324219 65.550781 254.695312 65.550781 187.40625 C 65.550781 120.113281 120.246094 65.488281 187.621094 65.488281 Z M 187.621094 126.445312 C 221.304688 126.445312 248.65625 153.757812 248.65625 187.40625 C 248.65625 221.046875 221.304688 248.367188 187.621094 248.367188 C 153.9375 248.367188 126.585938 221.046875 126.585938 187.40625 C 126.585938 153.757812 153.929688 126.445312 187.621094 126.445312 Z M 187.621094 126.445312 " fill-opacity="1" fill-rule="evenodd"/><path fill="#3949ab" d="M 348.800781 93.398438 C 353.296875 97.605469 353.210938 103.945312 353.210938 108.933594 C 353.210938 141.980469 352.933594 235.980469 353.289062 269.03125 C 353.324219 272.480469 352.183594 276.109375 350.472656 278.84375 L 184.074219 187.40625 Z M 348.800781 93.398438 " fill-opacity="1" fill-rule="evenodd"/></svg>