<svg xmlns="http://www.w3.org/2000/svg" xmlns:xlink="http://www.w3.org/1999/xlink" width="500" zoomAndPan="magnify" viewBox="0 0 375 374.999991" height="500" preserveAspectRatio="xMidYMid meet" version="1.0"><defs><clipPath id="c4df29014e"><path d="M 119 148 L 257 148 L 257 359.484375 L 119 359.484375 Z M 119 148 " clip-rule="nonzero"/></clipPath><clipPath id="2689a215fc"><path d="M 22 148 L 188 148 L 188 359.484375 L 22 359.484375 Z M 22 148 " clip-rule="nonzero"/></clipPath><clipPath id="8c4f3b4fe5"><path d="M 1 148 L 188 148 L 188 359.484375 L 1 359.484375 Z M 1 148 " clip-rule="nonzero"/></clipPath><clipPath id="92ada22288"><path d="M 187 148 L 353 148 L 353 359.484375 L 187 359.484375 Z M 187 148 " clip-rule="nonzero"/></clipPath><clipPath id="a8732b6414"><path d="M 187 148 L 374 148 L 374 359.484375 L 187 359.484375 Z M 187 148 " clip-rule="nonzero"/></clipPath></defs><g clip-path="url(#c4df29014e)"><path fill="#e24329" d="M 187.527344 359.441406 L 256.070312 148.6875 L 119.003906 148.695312 L 187.527344 359.445312 Z M 187.527344 359.441406 " fill-opacity="1" fill-rule="nonzero"/></g><g clip-path="url(#2689a215fc)"><path fill="#fc6d26" d="M 187.527344 359.441406 L 119.003906 148.6875 L 22.953125 148.695312 L 187.523438 359.445312 Z M 187.527344 359.441406 " fill-opacity="1" fill-rule="nonzero"/></g><g clip-path="url(#8c4f3b4fe5)"><path fill="#fca326" d="M 22.953125 148.695312 L 2.128906 212.742188 C 0.226562 218.585938 2.308594 224.984375 7.28125 228.589844 L 187.535156 359.441406 L 22.964844 148.6875 L 22.960938 148.695312 Z M 22.953125 148.695312 " fill-opacity="1" fill-rule="nonzero"/></g><path fill="#e24329" d="M 22.953125 148.695312 L 119.003906 148.695312 L 77.722656 21.761719 C 75.601562 15.230469 66.355469 15.230469 64.230469 21.761719 Z M 22.953125 148.695312 " fill-opacity="1" fill-rule="nonzero"/><g clip-path="url(#92ada22288)"><path fill="#fc6d26" d="M 187.527344 359.441406 L 256.070312 148.6875 L 352.113281 148.695312 L 187.527344 359.445312 Z M 187.527344 359.441406 " fill-opacity="1" fill-rule="nonzero"/></g><g clip-path="url(#a8732b6414)"><path fill="#fca326" d="M 352.113281 148.695312 L 372.949219 212.742188 C 374.839844 218.585938 372.757812 224.984375 367.796875 228.589844 L 187.527344 359.441406 L 352.113281 148.6875 Z M 352.113281 148.695312 " fill-opacity="1" fill-rule="nonzero"/></g><path fill="#e24329" d="M 352.113281 148.695312 L 256.070312 148.695312 L 297.347656 21.761719 C 299.472656 15.230469 308.726562 15.230469 310.835938 21.761719 Z M 352.113281 148.695312 " fill-opacity="1" fill-rule="nonzero"/></svg>