<svg xmlns="http://www.w3.org/2000/svg" xmlns:xlink="http://www.w3.org/1999/xlink" width="360" zoomAndPan="magnify" viewBox="0 0 270 269.999989" height="360" preserveAspectRatio="xMidYMid meet" version="1.0"><defs><clipPath id="6475c551e8"><path d="M 12.640625 12.640625 L 257.140625 12.640625 L 257.140625 257.140625 L 12.640625 257.140625 Z M 12.640625 12.640625 " clip-rule="nonzero"/></clipPath></defs><g clip-path="url(#6475c551e8)"><path fill="#cb6e69" d="M 257.289062 134.953125 C 257.289062 202.523438 202.523438 257.289062 134.953125 257.289062 C 67.382812 257.289062 12.613281 202.523438 12.613281 134.953125 C 12.613281 67.382812 67.382812 12.613281 134.953125 12.613281 C 202.523438 12.613281 257.289062 67.382812 257.289062 134.953125 " fill-opacity="1" fill-rule="nonzero"/></g><path fill="#000000" d="M 186.691406 147.691406 L 83.214844 147.691406 L 83.214844 122.21875 L 186.691406 122.21875 L 186.691406 147.691406 " fill-opacity="1" fill-rule="nonzero"/><path fill="#cb6e69" d="M 84.941406 145.964844 L 184.964844 145.964844 L 184.964844 123.945312 L 84.941406 123.945312 Z M 186.691406 149.417969 L 83.214844 149.417969 C 82.265625 149.417969 81.488281 148.640625 81.488281 147.691406 L 81.488281 122.21875 C 81.488281 121.261719 82.265625 120.496094 83.214844 120.496094 L 186.691406 120.496094 C 187.640625 120.496094 188.417969 121.261719 188.417969 122.21875 L 188.417969 147.691406 C 188.417969 148.640625 187.640625 149.417969 186.691406 149.417969 " fill-opacity="1" fill-rule="nonzero"/><path fill="#000000" d="M 90.578125 177.722656 C 90.578125 184.757812 84.878906 190.453125 77.84375 190.453125 C 70.808594 190.453125 65.113281 184.757812 65.113281 177.722656 L 65.113281 92.183594 C 65.113281 85.15625 70.808594 79.449219 77.84375 79.449219 C 84.878906 79.449219 90.578125 85.15625 90.578125 92.183594 L 90.578125 177.722656 " fill-opacity="1" fill-rule="nonzero"/><path fill="#cb6e69" d="M 77.84375 81.175781 C 71.777344 81.175781 66.839844 86.113281 66.839844 92.183594 L 66.839844 177.722656 C 66.839844 183.789062 71.777344 188.726562 77.84375 188.726562 C 83.914062 188.726562 88.851562 183.789062 88.851562 177.722656 L 88.851562 92.183594 C 88.851562 86.113281 83.914062 81.175781 77.84375 81.175781 Z M 77.84375 192.179688 C 69.867188 192.179688 63.386719 185.699219 63.386719 177.722656 L 63.386719 92.183594 C 63.386719 84.214844 69.867188 77.722656 77.84375 77.722656 C 85.820312 77.722656 92.304688 84.214844 92.304688 92.183594 L 92.304688 177.722656 C 92.304688 185.699219 85.820312 192.179688 77.84375 192.179688 " fill-opacity="1" fill-rule="nonzero"/><path fill="#000000" d="M 65.113281 166.441406 C 65.113281 173.476562 59.40625 179.171875 52.371094 179.171875 C 45.347656 179.171875 39.640625 173.476562 39.640625 166.441406 L 39.640625 103.464844 C 39.640625 96.429688 45.347656 90.730469 52.371094 90.730469 C 59.40625 90.730469 65.113281 96.429688 65.113281 103.464844 L 65.113281 166.441406 " fill-opacity="1" fill-rule="nonzero"/><path fill="#cb6e69" d="M 52.371094 92.457031 C 46.304688 92.457031 41.367188 97.394531 41.367188 103.464844 L 41.367188 166.441406 C 41.367188 172.507812 46.304688 177.445312 52.371094 177.445312 C 58.441406 177.445312 63.386719 172.507812 63.386719 166.441406 L 63.386719 103.464844 C 63.386719 97.394531 58.441406 92.457031 52.371094 92.457031 Z M 52.371094 180.898438 C 44.40625 180.898438 37.914062 174.417969 37.914062 166.441406 L 37.914062 103.464844 C 37.914062 95.488281 44.40625 89.003906 52.371094 89.003906 C 60.347656 89.003906 66.839844 95.488281 66.839844 103.464844 L 66.839844 166.441406 C 66.839844 174.417969 60.347656 180.898438 52.371094 180.898438 " fill-opacity="1" fill-rule="nonzero"/><path fill="#000000" d="M 179.328125 177.722656 C 179.328125 184.757812 185.023438 190.453125 192.058594 190.453125 C 199.09375 190.453125 204.792969 184.757812 204.792969 177.722656 L 204.792969 92.183594 C 204.792969 85.15625 199.09375 79.449219 192.058594 79.449219 C 185.023438 79.449219 179.328125 85.15625 179.328125 92.183594 L 179.328125 177.722656 " fill-opacity="1" fill-rule="nonzero"/><path fill="#cb6e69" d="M 192.058594 81.175781 C 185.992188 81.175781 181.054688 86.113281 181.054688 92.183594 L 181.054688 177.722656 C 181.054688 183.789062 185.992188 188.726562 192.058594 188.726562 C 198.128906 188.726562 203.066406 183.789062 203.066406 177.722656 L 203.066406 92.183594 C 203.066406 86.113281 198.128906 81.175781 192.058594 81.175781 Z M 192.058594 192.179688 C 184.085938 192.179688 177.601562 185.699219 177.601562 177.722656 L 177.601562 92.183594 C 177.601562 84.214844 184.085938 77.722656 192.058594 77.722656 C 200.035156 77.722656 206.519531 84.214844 206.519531 92.183594 L 206.519531 177.722656 C 206.519531 185.699219 200.035156 192.179688 192.058594 192.179688 " fill-opacity="1" fill-rule="nonzero"/><path fill="#000000" d="M 204.792969 166.441406 C 204.792969 173.476562 210.496094 179.171875 217.53125 179.171875 C 224.558594 179.171875 230.265625 173.476562 230.265625 166.441406 L 230.265625 103.464844 C 230.265625 96.429688 224.558594 90.730469 217.53125 90.730469 C 210.496094 90.730469 204.792969 96.429688 204.792969 103.464844 L 204.792969 166.441406 " fill-opacity="1" fill-rule="nonzero"/><path fill="#cb6e69" d="M 217.53125 92.457031 C 211.457031 92.457031 206.519531 97.394531 206.519531 103.464844 L 206.519531 166.441406 C 206.519531 172.507812 211.457031 177.445312 217.53125 177.445312 C 223.601562 177.445312 228.539062 172.507812 228.539062 166.441406 L 228.539062 103.464844 C 228.539062 97.394531 223.601562 92.457031 217.53125 92.457031 Z M 217.53125 180.898438 C 209.558594 180.898438 203.066406 174.417969 203.066406 166.441406 L 203.066406 103.464844 C 203.066406 95.488281 209.558594 89.003906 217.53125 89.003906 C 225.5 89.003906 231.992188 95.488281 231.992188 103.464844 L 231.992188 166.441406 C 231.992188 174.417969 225.5 180.898438 217.53125 180.898438 " fill-opacity="1" fill-rule="nonzero"/></svg>