<svg xmlns="http://www.w3.org/2000/svg" xmlns:xlink="http://www.w3.org/1999/xlink" width="360" zoomAndPan="magnify" viewBox="0 0 270 269.999989" height="360" preserveAspectRatio="xMidYMid meet" version="1.0"><defs><clipPath id="3d30ec92c3"><path d="M 2 28.632812 L 268 28.632812 L 268 236 L 2 236 Z M 2 28.632812 " clip-rule="nonzero"/></clipPath></defs><g clip-path="url(#3d30ec92c3)"><path fill="#f1965d" d="M 12.996094 86.023438 L 41.863281 86.023438 L 51.832031 57.15625 L 80.355469 57.15625 L 70.390625 86.023438 L 98.914062 86.023438 L 108.878906 57.15625 L 137.40625 57.15625 L 147.371094 28.632812 L 176.238281 28.632812 L 166.273438 57.15625 L 194.796875 57.15625 L 185.863281 82.585938 C 181.738281 79.152344 175.894531 77.433594 170.054688 77.089844 C 165.929688 76.746094 162.148438 77.089844 159.054688 78.121094 L 166.273438 57.15625 L 137.40625 57.15625 L 127.78125 86.023438 L 147.714844 86.023438 C 142.902344 93.242188 142.558594 104.238281 142.902344 114.550781 L 117.816406 114.550781 L 114.035156 124.859375 C 104.070312 122.453125 93.414062 122.453125 84.824219 127.265625 L 89.292969 114.550781 L 60.421875 114.550781 L 50.457031 143.074219 L 67.640625 143.074219 C 65.921875 144.792969 64.203125 146.511719 62.484375 148.226562 C 59.390625 151.664062 58.359375 155.789062 59.046875 160.257812 C 56.988281 162.664062 54.582031 164.722656 52.519531 167.128906 C 50.800781 165.753906 49.082031 164.722656 47.019531 164.039062 L 45.988281 164.039062 C 44.957031 163.695312 44.269531 163.695312 43.238281 163.351562 L 50.457031 143.074219 L 21.933594 143.074219 L 31.898438 114.550781 L 3.03125 114.550781 Z M 100.289062 140.667969 L 90.664062 150.632812 L 92.726562 151.320312 L 89.976562 154.414062 L 87.574219 153.726562 L 83.105469 152.007812 L 80.699219 151.320312 L 83.449219 148.226562 L 85.855469 149.257812 L 92.039062 143.074219 L 87.917969 143.074219 L 90.664062 140.324219 L 96.507812 139.636719 Z M 41.863281 86.023438 L 31.898438 114.550781 L 60.421875 114.550781 L 70.390625 86.023438 Z M 98.914062 86.023438 L 88.949219 114.550781 L 117.816406 114.550781 L 127.78125 86.023438 Z M 189.296875 86.023438 L 213.699219 86.023438 L 203.734375 114.550781 L 232.257812 114.550781 L 222.289062 143.074219 L 208.886719 143.074219 C 208.886719 142.386719 208.886719 142.042969 208.886719 141.355469 L 208.886719 140.667969 C 208.542969 133.792969 205.449219 127.609375 200.640625 123.140625 L 203.734375 114.550781 L 194.453125 114.550781 C 195.484375 105.269531 195.484375 94.617188 189.984375 86.710938 C 189.640625 86.367188 189.640625 86.023438 189.296875 86.023438 Z M 18.496094 178.816406 C 16.089844 177.441406 12.996094 176.410156 11.621094 177.785156 L 4.40625 185 C 3.03125 186.375 3.03125 188.4375 3.03125 189.8125 L 2 212.152344 C 2.34375 215.929688 4.40625 218.335938 9.214844 218.679688 C 26.398438 223.835938 46.332031 228.304688 67.984375 232.425781 C 79.667969 234.144531 82.417969 234.488281 96.507812 232.769531 C 109.222656 231.394531 120.910156 229.675781 120.910156 229.675781 C 128.125 235.519531 151.152344 241.363281 156.304688 222.804688 C 159.742188 226.242188 163.523438 226.585938 170.054688 225.898438 C 212.667969 220.054688 237.066406 216.273438 237.066406 216.273438 C 252.191406 224.867188 268 216.273438 268 197.714844 C 268 181.90625 252.191406 170.910156 236.382812 179.503906 C 225.039062 175.722656 219.199219 174.003906 219.199219 174.003906 C 204.417969 169.535156 197.203125 167.472656 197.203125 167.472656 C 199.953125 159.914062 201.671875 150.976562 202.359375 140.667969 C 202.015625 133.449219 196.859375 126.578125 189.984375 124.171875 C 190.328125 121.421875 189.296875 118.671875 187.238281 116.953125 C 189.984375 101.144531 189.296875 84.648438 169.710938 83.617188 C 158.710938 82.929688 148.402344 90.492188 148.402344 103.550781 C 148.402344 104.238281 148.746094 105.269531 149.089844 105.613281 C 149.089844 110.082031 149.433594 114.550781 149.433594 119.015625 C 148.746094 121.421875 149.777344 124.171875 151.839844 125.546875 C 147.371094 126.921875 143.589844 129.671875 141.527344 133.792969 C 137.0625 134.824219 132.9375 136.199219 128.8125 138.261719 C 116.097656 131.046875 107.503906 128.640625 103.726562 131.730469 C 93.757812 128.640625 89.976562 129.671875 83.449219 136.542969 C 73.480469 146.167969 66.953125 152.695312 66.953125 152.695312 C 65.234375 154.757812 64.890625 157.164062 65.578125 160.257812 C 65.921875 161.632812 65.921875 161.976562 64.890625 163.007812 C 56.300781 172.972656 52.175781 177.441406 52.175781 177.441406 C 49.769531 171.597656 43.925781 169.535156 38.085938 169.191406 C 29.492188 168.503906 22.621094 169.878906 18.496094 178.816406 Z M 195.828125 130.703125 C 193.078125 127.265625 178.988281 129.671875 171.429688 138.605469 C 175.894531 132.417969 182.082031 127.953125 188.953125 125.890625 C 191.015625 126.578125 193.765625 128.296875 195.828125 130.703125 Z M 155.960938 97.367188 C 147.714844 97.367188 160.429688 83.273438 171.085938 85.679688 C 175.894531 85.679688 179.675781 89.117188 181.394531 93.242188 C 177.957031 90.492188 173.144531 89.804688 169.023438 91.179688 C 170.742188 91.179688 172.457031 91.867188 174.175781 92.554688 C 164.554688 90.835938 163.179688 97.367188 155.960938 97.367188 Z M 150.464844 109.050781 C 150.464844 107.675781 150.464844 108.363281 150.808594 106.644531 C 156.304688 108.707031 163.523438 108.363281 171.429688 104.925781 C 174.175781 103.894531 175.207031 104.925781 174.519531 108.019531 C 174.519531 111.800781 173.488281 114.894531 171.429688 117.640625 C 172.113281 115.578125 172.457031 113.519531 172.800781 111.457031 C 173.488281 108.363281 172.457031 106.988281 169.367188 108.019531 C 162.492188 111.113281 156.304688 111.457031 150.464844 109.050781 Z M 143.933594 150.289062 C 143.246094 148.914062 142.558594 147.542969 141.183594 146.167969 C 143.933594 145.824219 148.058594 146.855469 150.121094 148.914062 C 157.335938 150.289062 164.210938 152.695312 170.742188 155.789062 C 171.085938 153.382812 172.800781 151.320312 175.207031 150.632812 C 173.144531 148.914062 174.175781 145.824219 178.300781 141.699219 C 180.363281 137.230469 184.488281 133.792969 189.640625 133.792969 C 196.171875 133.792969 199.265625 136.199219 198.921875 141.011719 C 194.453125 147.542969 191.015625 151.664062 188.609375 153.726562 C 186.207031 153.039062 184.144531 152.351562 182.425781 151.664062 C 185.175781 154.070312 186.207031 156.132812 185.519531 157.507812 C 186.207031 160.945312 185.519531 163.351562 183.113281 164.722656 C 180.707031 166.785156 178.300781 168.160156 175.894531 168.847656 C 175.550781 167.128906 175.550781 165.066406 176.238281 161.976562 C 174.519531 159.226562 173.488281 157.851562 173.488281 157.851562 C 173.488281 161.289062 173.488281 162.664062 173.488281 162.664062 C 167.648438 161.632812 161.804688 159.570312 156.304688 156.132812 C 151.839844 157.507812 150.464844 156.476562 151.496094 153.039062 C 147.027344 156.476562 144.277344 155.445312 143.933594 150.289062 Z M 185.519531 119.015625 C 186.207031 118.671875 186.550781 118.671875 187.582031 119.703125 C 177.269531 129.328125 167.304688 132.761719 157.335938 130.359375 C 165.929688 131.390625 175.550781 127.265625 185.519531 119.015625 Z M 184.144531 184.3125 C 192.390625 181.5625 194.109375 175.035156 196.171875 171.597656 C 221.945312 178.816406 233.632812 182.59375 230.882812 182.25 C 228.820312 182.59375 227.789062 182.59375 227.789062 182.59375 C 227.445312 182.59375 227.101562 182.25 226.757812 182.25 C 204.078125 173.660156 191.015625 186.71875 184.144531 184.3125 Z M 252.535156 206.308594 C 255.96875 212.152344 261.8125 209.746094 263.53125 200.464844 C 261.125 206.996094 257.34375 209.058594 252.535156 206.308594 Z M 258.03125 185 C 251.847656 187.75 248.066406 193.9375 248.753906 200.464844 C 249.785156 188.78125 263.875 185.34375 265.9375 198.402344 C 266.625 183.96875 250.472656 173.316406 238.441406 180.875 C 241.535156 179.847656 244.628906 179.847656 247.722656 179.847656 C 244.972656 180.875 242.566406 181.90625 240.160156 183.625 C 242.910156 182.59375 246.347656 181.90625 249.441406 181.5625 C 247.035156 182.59375 245.316406 184.3125 244.628906 186.375 C 247.035156 184.3125 250.472656 182.9375 253.90625 183.28125 C 250.816406 184.3125 248.410156 186.71875 247.035156 189.8125 C 249.785156 186.71875 253.90625 185 258.03125 185 Z M 175.894531 209.058594 C 193.765625 210.089844 210.949219 207.683594 227.445312 202.527344 C 210.949219 205.621094 193.765625 207.683594 175.894531 209.058594 Z M 186.207031 196 C 180.363281 196.6875 174.863281 197.027344 170.398438 197.714844 C 162.492188 198.402344 157.679688 193.25 166.273438 192.21875 L 169.710938 191.875 L 236.726562 183.96875 C 239.472656 183.96875 239.816406 185 237.410156 186.375 C 224.351562 188.78125 224.007812 188.78125 216.792969 190.15625 C 214.042969 194.28125 209.574219 196.34375 203.734375 197.027344 C 198.578125 197.371094 192.734375 197.027344 186.207031 196 Z M 143.933594 224.867188 C 142.214844 225.554688 140.496094 225.898438 138.78125 225.554688 C 139.808594 226.242188 141.183594 226.585938 142.558594 226.585938 C 144.277344 226.585938 145.996094 225.898438 147.027344 224.867188 C 149.089844 223.148438 150.464844 220.398438 150.464844 217.304688 C 150.464844 216.273438 150.121094 215.242188 150.121094 214.210938 C 150.121094 217.304688 149.089844 220.398438 147.027344 222.460938 C 145.996094 223.492188 144.964844 224.179688 143.933594 224.867188 Z M 133.625 204.246094 C 129.84375 209.058594 129.15625 214.898438 131.5625 219.710938 C 129.84375 207.339844 141.183594 200.808594 149.089844 206.308594 C 145.996094 201.496094 139.464844 199.433594 133.28125 200.464844 C 123.65625 201.839844 120.222656 209.746094 122.96875 219.023438 C 122.285156 213.183594 125.03125 206.652344 130.53125 203.902344 C 126.40625 208.371094 125.71875 214.210938 127.09375 219.710938 C 127.09375 213.183594 128.8125 206.652344 133.625 204.246094 Z M 161.460938 208.371094 C 164.898438 209.058594 167.992188 209.746094 171.429688 209.746094 C 167.992188 210.777344 164.554688 210.089844 161.460938 208.371094 Z M 161.460938 205.277344 C 164.898438 205.964844 167.992188 206.308594 171.429688 206.652344 C 167.992188 207.339844 164.554688 206.996094 161.460938 205.277344 Z M 161.460938 202.183594 C 164.898438 202.871094 167.992188 203.214844 171.429688 203.214844 C 167.992188 204.246094 164.554688 203.902344 161.460938 202.183594 Z M 161.460938 199.089844 C 164.898438 199.777344 167.992188 200.121094 171.429688 200.121094 C 167.992188 201.152344 164.554688 200.808594 161.460938 199.089844 Z M 82.417969 141.011719 C 77.949219 145.480469 73.140625 150.632812 70.046875 154.070312 C 65.921875 158.539062 71.078125 160.257812 67.984375 163.695312 C 60.765625 171.597656 53.550781 180.535156 45.988281 189.8125 C 37.742188 200.464844 54.925781 197.371094 62.484375 187.0625 L 68.671875 178.816406 L 54.582031 187.40625 C 59.390625 181.21875 69.703125 174.003906 77.605469 169.535156 C 82.417969 166.785156 93.757812 166.785156 98.570312 161.632812 C 96.851562 162.664062 87.917969 165.753906 81.730469 164.722656 C 88.605469 163.351562 94.789062 161.976562 97.882812 159.226562 C 104.414062 152.695312 105.789062 151.664062 111.285156 146.511719 C 116.441406 141.699219 107.160156 135.511719 100.976562 133.449219 C 95.476562 131.730469 92.382812 132.761719 88.949219 135.167969 C 93.070312 134.136719 96.851562 135.511719 104.070312 138.949219 C 91.007812 135.167969 89.292969 134.824219 82.417969 141.011719 Z M 73.480469 155.101562 C 90.664062 163.351562 92.039062 162.320312 108.878906 143.417969 C 91.007812 159.570312 93.757812 160.945312 73.480469 155.101562 Z M 88.949219 174.003906 C 96.164062 172.628906 101.664062 169.191406 106.132812 164.039062 C 109.222656 157.164062 112.316406 152.695312 116.785156 149.601562 C 118.847656 147.882812 119.535156 146.855469 118.503906 144.105469 C 117.472656 141.011719 115.066406 137.917969 110.941406 135.511719 C 113.691406 137.574219 116.097656 141.355469 116.441406 144.105469 C 116.441406 145.824219 115.753906 147.199219 114.378906 147.882812 C 110.253906 151.320312 106.816406 156.132812 103.726562 162.664062 C 99.601562 167.816406 93.757812 170.910156 86.886719 172.285156 L 73.824219 179.503906 C 71.078125 180.875 68.671875 182.59375 67.640625 185.6875 L 64.546875 193.9375 C 63.171875 198.058594 64.546875 198.746094 68.328125 199.433594 L 92.382812 204.246094 C 97.195312 205.277344 101.320312 204.933594 104.070312 203.902344 C 102.351562 204.246094 98.226562 203.902344 93.414062 202.871094 L 68.671875 196.6875 C 67.296875 196.34375 67.296875 195.65625 67.296875 194.625 L 70.046875 187.0625 C 70.734375 185 72.453125 182.9375 75.199219 181.5625 Z M 5.09375 215.242188 C 7.15625 217.304688 12.652344 218.335938 15.746094 219.023438 C 31.210938 223.148438 46.675781 226.585938 66.609375 230.363281 C 75.886719 231.738281 82.761719 232.425781 94.445312 231.050781 C 103.382812 230.019531 112.660156 228.304688 121.253906 227.273438 C 117.472656 221.429688 115.753906 214.210938 117.472656 207.339844 C 117.816406 205.964844 117.472656 204.933594 116.441406 203.902344 C 115.410156 203.214844 114.035156 202.527344 113.003906 201.839844 C 115.066406 203.558594 115.410156 204.589844 115.066406 206.996094 C 114.035156 211.808594 114.722656 215.929688 116.441406 220.398438 C 118.160156 225.210938 116.785156 225.898438 113.003906 226.585938 L 93.070312 229.335938 C 83.449219 230.363281 75.199219 229.675781 65.578125 228.304688 C 47.019531 224.867188 30.523438 222.117188 15.746094 217.992188 C 12.996094 217.304688 7.5 216.273438 5.09375 215.242188 Z M 132.9375 152.007812 C 131.5625 152.007812 131.21875 151.320312 132.59375 150.976562 C 134.3125 149.945312 136.03125 148.914062 137.40625 147.199219 C 138.09375 146.855469 138.78125 146.855469 139.121094 147.199219 C 139.808594 147.542969 140.152344 148.226562 139.808594 148.914062 C 140.839844 149.601562 141.527344 150.632812 141.527344 152.007812 C 142.558594 153.039062 143.246094 154.757812 142.558594 156.132812 C 140.152344 156.820312 138.09375 157.164062 136.375 156.820312 C 135.34375 156.820312 133.96875 156.476562 132.9375 155.789062 C 131.21875 154.757812 131.5625 154.414062 133.96875 154.414062 C 135 155.101562 136.71875 155.101562 139.121094 154.414062 C 140.152344 153.382812 139.808594 153.039062 138.4375 153.039062 C 136.375 153.726562 135.34375 154.070312 135.6875 154.070312 C 134.65625 154.070312 134.3125 153.726562 135 152.695312 C 137.0625 151.664062 138.4375 150.976562 138.4375 150.976562 C 139.121094 149.945312 138.78125 149.601562 137.75 150.289062 C 136.03125 151.664062 134.65625 152.351562 132.9375 152.007812 Z M 133.96875 145.136719 C 133.625 145.824219 133.28125 146.167969 133.28125 146.167969 C 129.15625 142.386719 123.65625 138.605469 116.097656 135.167969 C 124 137.230469 129.84375 140.667969 133.96875 145.136719 Z M 74.855469 192.5625 C 77.261719 193.25 80.011719 193.59375 82.417969 194.28125 L 102.007812 170.910156 L 92.726562 186.03125 L 115.753906 154.414062 C 117.128906 154.414062 118.503906 155.789062 118.503906 156.476562 C 103.726562 174.691406 90.320312 190.5 87.230469 195.65625 C 90.320312 196.6875 93.070312 197.371094 95.132812 198.402344 L 98.226562 193.25 C 109.566406 188.4375 117.128906 184.65625 121.253906 182.59375 C 116.441406 183.96875 114.035156 184.3125 114.035156 184.3125 C 120.910156 178.816406 126.0625 175.035156 129.84375 173.316406 C 131.90625 170.910156 135.34375 170.222656 139.808594 171.597656 C 147.714844 172.628906 152.527344 173.660156 154.933594 174.347656 C 159.054688 174.691406 161.804688 177.097656 162.835938 181.5625 C 163.179688 185.6875 161.117188 186.71875 157.335938 184.3125 C 150.464844 183.625 147.027344 182.9375 147.027344 182.9375 C 143.589844 179.503906 141.871094 177.785156 141.871094 177.785156 C 141.871094 182.25 141.871094 184.65625 141.871094 184.65625 C 139.808594 180.875 138.4375 179.160156 138.4375 179.160156 C 136.71875 183.625 135.6875 186.03125 135.6875 186.03125 C 135 183.28125 134.65625 181.90625 134.65625 181.90625 C 131.90625 187.40625 128.125 191.875 122.625 195.3125 C 118.160156 198.746094 114.035156 200.464844 110.597656 200.808594 C 107.847656 200.121094 104.414062 200.121094 99.945312 201.152344 C 93.414062 199.777344 80.355469 196.6875 73.480469 195.3125 C 72.796875 193.59375 73.480469 192.5625 74.855469 192.5625 Z M 47.019531 186.375 C 47.707031 186.03125 48.050781 185.6875 48.050781 185.6875 C 43.582031 185 42.894531 184.65625 39.460938 183.28125 C 38.085938 183.28125 37.742188 184.3125 37.742188 185 C 40.832031 185.6875 43.582031 186.03125 47.019531 186.375 Z M 40.832031 194.28125 C 41.175781 193.9375 41.863281 193.25 41.863281 193.25 C 37.398438 192.21875 35.335938 191.875 32.929688 191.53125 C 32.585938 191.1875 31.210938 190.84375 34.992188 188.09375 C 33.960938 188.4375 31.898438 189.125 30.179688 190.5 C 29.148438 191.53125 29.492188 192.5625 30.523438 192.90625 C 38.085938 194.625 39.804688 194.625 40.832031 194.28125 Z M 42.207031 171.253906 C 31.210938 168.847656 24.339844 170.222656 20.214844 180.535156 C 22.277344 177.097656 25.367188 174.347656 29.148438 172.285156 C 26.054688 175.035156 23.996094 178.816406 22.621094 183.28125 C 25.023438 179.160156 29.492188 173.316406 34.304688 171.941406 C 30.867188 173.316406 25.367188 181.5625 27.085938 188.4375 C 27.429688 180.535156 36.367188 172.285156 42.207031 171.253906 Z M 16.777344 179.847656 C 14.714844 181.90625 14.027344 188.09375 14.027344 188.09375 C 13.683594 185.34375 13.339844 181.90625 13.339844 181.90625 C 10.246094 187.0625 12.996094 191.53125 14.371094 192.5625 C 11.964844 191.1875 10.589844 189.46875 10.589844 185.6875 C 9.558594 189.8125 11.621094 193.25 14.371094 193.9375 L 30.867188 198.058594 C 34.648438 199.089844 37.054688 196 38.773438 195.65625 C 38.429688 196.34375 37.398438 199.089844 34.992188 199.777344 C 29.492188 201.496094 26.742188 203.902344 31.898438 205.964844 C 47.707031 209.402344 68.671875 215.242188 72.109375 212.496094 C 80.011719 206.652344 61.109375 204.933594 64.203125 201.839844 L 89.976562 206.652344 C 94.789062 207.683594 98.226562 206.996094 102.007812 205.964844 C 106.132812 204.933594 110.941406 202.527344 111.972656 205.621094 C 112.660156 206.996094 112.316406 210.777344 112.316406 213.867188 C 112.316406 219.367188 114.378906 221.429688 115.066406 223.148438 C 110.941406 221.085938 110.941406 209.746094 106.816406 210.777344 C 99.945312 212.839844 93.414062 214.554688 88.261719 215.929688 C 82.074219 217.648438 77.605469 218.679688 68.328125 216.617188 L 14.714844 204.589844 L 10.589844 203.558594 C 6.8125 202.871094 5.78125 200.808594 5.78125 199.433594 L 5.78125 190.5 C 5.78125 187.40625 6.46875 186.375 7.5 185 L 11.964844 180.191406 C 13.339844 178.816406 14.027344 179.503906 16.777344 179.847656 Z M 16.777344 179.847656 " fill-opacity="1" fill-rule="evenodd"/></g></svg>