<svg xmlns="http://www.w3.org/2000/svg" xmlns:xlink="http://www.w3.org/1999/xlink" width="360" zoomAndPan="magnify" viewBox="0 0 270 269.999989" height="360" preserveAspectRatio="xMidYMid meet" version="1.0"><defs><clipPath id="78a901259c"><path d="M 17.589844 8.070312 L 252.339844 8.070312 L 252.339844 261.570312 L 17.589844 261.570312 Z M 17.589844 8.070312 " clip-rule="nonzero"/></clipPath></defs><rect x="-27" width="324" fill="#ffffff" y="-26.999999" height="323.999987" fill-opacity="1"/><rect x="-27" width="324" fill="#000000" y="-26.999999" height="323.999987" fill-opacity="1"/><path fill="#e48862" d="M 117.207031 117.945312 L 114.691406 117.945312 L 119.601562 141.640625 L 121.054688 141.640625 L 120.574219 132 L 117.207031 117.945312 " fill-opacity="1" fill-rule="nonzero"/><path fill="#e48862" d="M 119.402344 117.945312 L 119.992188 120.4375 L 119.871094 117.945312 Z M 119.402344 117.945312 " fill-opacity="1" fill-rule="nonzero"/><path fill="#e48862" d="M 113.5 69.027344 C 110.585938 69.261719 108.402344 71.828125 108.636719 74.753906 L 109.539062 85.75 L 109.566406 85.75 C 109.566406 85.269531 109.871094 84.832031 110.359375 84.714844 C 110.925781 84.582031 111.5 84.933594 111.640625 85.496094 L 111.703125 85.75 L 118.25 85.75 L 117.480469 70.371094 C 116.4375 69.4375 115.015625 68.902344 113.5 69.027344 " fill-opacity="1" fill-rule="nonzero"/><path fill="#e48862" d="M 112.519531 112.65625 C 113.082031 112.53125 113.65625 112.910156 113.773438 113.484375 L 113.816406 113.703125 L 116.199219 113.703125 L 110.527344 89.996094 L 109.878906 89.996094 L 111.773438 113.273438 C 111.910156 112.972656 112.167969 112.726562 112.519531 112.65625 " fill-opacity="1" fill-rule="nonzero"/><path fill="#e48862" d="M 112.710938 89.996094 L 118.378906 113.703125 L 119.652344 113.703125 L 118.464844 89.996094 L 112.710938 89.996094 " fill-opacity="1" fill-rule="nonzero"/><path fill="#e48862" d="M 114.433594 145.894531 L 115.035156 153.257812 C 115.082031 153.867188 115.273438 154.421875 115.550781 154.921875 L 114.71875 145.894531 L 114.433594 145.894531 " fill-opacity="1" fill-rule="nonzero"/><path fill="#e48862" d="M 116.445312 141.550781 L 116.453125 141.640625 L 117.425781 141.640625 L 112.523438 117.945312 L 112.15625 117.945312 L 114.089844 141.640625 L 114.335938 141.640625 C 114.335938 141.105469 114.734375 140.644531 115.292969 140.589844 C 115.851562 140.550781 116.390625 140.960938 116.445312 141.550781 " fill-opacity="1" fill-rule="nonzero"/><path fill="#e48862" d="M 121.273438 145.894531 L 120.476562 145.894531 L 121.515625 150.921875 Z M 121.273438 145.894531 " fill-opacity="1" fill-rule="nonzero"/><path fill="#e48862" d="M 119.308594 157.003906 C 119.746094 156.984375 120.160156 156.875 120.550781 156.730469 L 118.308594 145.894531 L 116.851562 145.894531 L 117.863281 156.8125 C 118.316406 156.957031 118.800781 157.03125 119.308594 157.003906 " fill-opacity="1" fill-rule="nonzero"/><path fill="#e48862" d="M 160.539062 85.75 L 161.4375 74.753906 C 161.671875 71.828125 159.5 69.261719 156.578125 69.027344 C 155.074219 68.90625 153.683594 69.417969 152.636719 70.335938 L 151.867188 85.75 L 158.648438 85.75 L 158.691406 85.558594 C 158.800781 85.132812 159.234375 84.859375 159.660156 84.972656 C 160.019531 85.0625 160.257812 85.390625 160.246094 85.75 L 160.539062 85.75 " fill-opacity="1" fill-rule="nonzero"/><g clip-path="url(#78a901259c)"><path fill="#e48862" d="M 135.039062 8.039062 C 61.648438 8.039062 17.621094 26.527344 17.621094 102.75 C 17.621094 125.726562 26.507812 150.714844 39.488281 174.371094 C 42.878906 180.570312 46.550781 186.6875 50.417969 192.640625 C 68.921875 221.199219 91.847656 246.355469 109.664062 261.609375 L 109.734375 257.675781 L 109.765625 256.429688 L 110.179688 234.90625 L 110.210938 233.433594 L 110.566406 215.003906 L 110.609375 212.566406 L 110.941406 195.570312 L 110.980469 193.132812 L 111.390625 171.972656 L 111.390625 170.390625 C 104.9375 168.910156 100.121094 163.148438 100.121094 156.242188 L 99.214844 145.894531 L 94.128906 145.894531 C 93.625 147.25 92.632812 148.421875 91.328125 149.277344 C 90.035156 150.140625 88.421875 150.675781 86.65625 150.769531 C 86.464844 150.796875 86.277344 150.796875 86.085938 150.796875 C 81.453125 150.796875 79.351562 151.023438 79.351562 143.789062 C 79.351562 136.515625 81.453125 136.75 86.085938 136.75 C 86.277344 136.75 86.464844 136.75 86.65625 136.773438 L 86.65625 136.777344 C 90.175781 136.953125 93.105469 138.941406 94.128906 141.640625 L 98.839844 141.640625 L 96.75 117.945312 L 92.792969 117.945312 C 91.777344 120.636719 88.886719 122.609375 85.402344 122.808594 L 85.394531 122.816406 C 85.207031 122.84375 85.015625 122.84375 84.824219 122.84375 L 84.03125 122.84375 C 79.953125 122.84375 78.09375 122.644531 78.09375 115.828125 L 78.09375 115.816406 C 78.09375 113.308594 78.34375 111.710938 78.871094 110.675781 C 79.851562 108.710938 81.796875 108.800781 84.824219 108.800781 C 85.015625 108.800781 85.207031 108.800781 85.394531 108.820312 L 85.402344 108.832031 C 88.886719 109.027344 91.777344 111.011719 92.792969 113.703125 L 96.375 113.703125 L 94.285156 89.996094 L 91.570312 89.996094 C 90.550781 92.675781 87.667969 94.667969 84.160156 94.867188 C 83.976562 94.886719 83.777344 94.886719 83.585938 94.886719 C 78.960938 94.886719 76.859375 95.121094 76.859375 87.878906 C 76.859375 80.617188 78.960938 80.851562 83.585938 80.851562 C 83.777344 80.851562 83.976562 80.851562 84.160156 80.875 C 87.667969 81.070312 90.550781 83.0625 91.558594 85.75 L 93.90625 85.75 L 92.140625 65.65625 C 92.140625 61.300781 91.859375 54.957031 99.875 54.957031 C 99.875 54.957031 103.066406 54.957031 108.105469 54.957031 C 112.957031 54.957031 123.191406 43.578125 134.332031 42.652344 L 134.332031 42.558594 C 134.566406 42.558594 134.808594 42.59375 135.042969 42.605469 C 135.277344 42.59375 135.507812 42.558594 135.742188 42.558594 L 135.742188 42.652344 C 146.882812 43.578125 157.128906 54.957031 161.964844 54.957031 C 167.007812 54.957031 170.203125 54.957031 170.203125 54.957031 C 178.21875 54.957031 177.941406 61.300781 177.941406 65.65625 L 176.171875 85.75 L 178.496094 85.75 C 179.519531 83.0625 182.417969 81.082031 185.898438 80.878906 L 185.902344 80.875 C 186.097656 80.851562 186.285156 80.851562 186.476562 80.851562 C 189.484375 80.851562 191.421875 80.761719 192.414062 82.699219 C 192.949219 83.734375 193.214844 85.332031 193.214844 87.871094 L 193.214844 87.878906 C 193.214844 95.121094 191.105469 94.886719 186.476562 94.886719 C 186.285156 94.886719 186.097656 94.886719 185.902344 94.867188 L 185.898438 94.859375 C 182.417969 94.660156 179.519531 92.675781 178.507812 89.996094 L 175.789062 89.996094 L 173.699219 113.703125 L 177.28125 113.703125 C 178.300781 111.011719 181.1875 109.039062 184.671875 108.832031 L 184.679688 108.820312 C 184.871094 108.800781 185.0625 108.800781 185.253906 108.800781 C 187.277344 108.800781 188.824219 108.757812 189.914062 109.320312 C 191.324219 110.03125 191.984375 111.738281 191.984375 115.816406 C 191.984375 119.453125 191.460938 121.199219 190.347656 122.054688 C 189.25 122.898438 187.566406 122.84375 185.253906 122.84375 C 185.0625 122.84375 184.871094 122.84375 184.679688 122.816406 L 184.671875 122.808594 C 181.1875 122.609375 178.300781 120.625 177.28125 117.945312 L 173.324219 117.945312 L 171.234375 141.640625 L 175.945312 141.640625 C 176.972656 138.941406 179.898438 136.960938 183.40625 136.777344 L 183.40625 136.773438 C 183.59375 136.75 183.789062 136.75 183.980469 136.75 C 188.613281 136.75 190.714844 136.515625 190.714844 143.789062 C 190.714844 151.023438 188.613281 150.796875 183.980469 150.796875 C 183.789062 150.796875 183.59375 150.796875 183.40625 150.769531 C 179.898438 150.585938 176.972656 148.597656 175.945312 145.894531 L 170.863281 145.894531 L 169.953125 156.242188 C 169.953125 163.140625 165.132812 168.910156 158.683594 170.390625 L 158.683594 172.066406 L 160.410156 261.613281 C 160.304688 261.703125 160.203125 261.785156 160.101562 261.875 L 160.105469 261.875 C 160.207031 261.785156 160.308594 261.703125 160.414062 261.613281 C 178.230469 246.351562 201.164062 221.191406 219.660156 192.640625 C 223.519531 186.6875 227.191406 180.570312 230.582031 174.371094 C 243.5625 150.714844 252.453125 125.726562 252.453125 102.75 C 252.453125 26.527344 208.421875 8.039062 135.039062 8.039062 " fill-opacity="1" fill-rule="nonzero"/></g><path fill="#e48862" d="M 150.066406 121.644531 L 150.949219 117.945312 L 150.257812 117.945312 Z M 150.066406 121.644531 " fill-opacity="1" fill-rule="nonzero"/><path fill="#e48862" d="M 150.464844 113.703125 L 151.964844 113.703125 L 157.636719 89.996094 L 151.65625 89.996094 L 150.464844 113.703125 " fill-opacity="1" fill-rule="nonzero"/><path fill="#e48862" d="M 148.441406 154.101562 C 148.976562 151.503906 149.558594 148.730469 150.140625 145.894531 L 148.847656 145.894531 L 148.441406 154.101562 " fill-opacity="1" fill-rule="nonzero"/><path fill="#e48862" d="M 149.066406 141.640625 L 151.019531 141.640625 C 152.929688 132.398438 154.839844 123.171875 155.921875 117.945312 L 152.59375 117.945312 L 149.632812 130.316406 L 149.066406 141.640625 " fill-opacity="1" fill-rule="nonzero"/><path fill="#e48862" d="M 155.648438 145.894531 L 154.554688 145.894531 L 153.613281 156.03125 C 154.410156 155.351562 154.949219 154.378906 155.039062 153.257812 L 155.648438 145.894531 " fill-opacity="1" fill-rule="nonzero"/><path fill="#e48862" d="M 160.191406 89.996094 L 159.273438 89.996094 L 153.601562 113.703125 L 156.800781 113.703125 L 156.828125 113.59375 C 156.882812 113.300781 157.175781 113.128906 157.453125 113.175781 C 157.703125 113.230469 157.863281 113.457031 157.863281 113.703125 L 158.265625 113.703125 L 160.191406 89.996094 " fill-opacity="1" fill-rule="nonzero"/><path fill="#e48862" d="M 149.027344 156.503906 C 149.546875 156.785156 150.140625 156.976562 150.765625 157.003906 C 151.589844 157.046875 152.375 156.839844 153.039062 156.449219 L 154.03125 145.894531 L 151.222656 145.894531 L 149.027344 156.503906 " fill-opacity="1" fill-rule="nonzero"/><path fill="#e48862" d="M 157.917969 117.945312 L 157.011719 117.945312 L 152.105469 141.640625 L 154.421875 141.640625 L 154.433594 141.625 C 154.4375 141.488281 154.554688 141.378906 154.691406 141.378906 L 154.710938 141.390625 C 154.855469 141.394531 154.949219 141.511719 154.949219 141.640625 L 155.984375 141.640625 L 157.917969 117.945312 " fill-opacity="1" fill-rule="nonzero"/></svg>