<svg xmlns="http://www.w3.org/2000/svg" xmlns:xlink="http://www.w3.org/1999/xlink" width="360" zoomAndPan="magnify" viewBox="0 0 270 269.999989" height="360" preserveAspectRatio="xMidYMid meet" version="1.0"><defs><clipPath id="f679644130"><path d="M 65 4.113281 L 205 4.113281 L 205 160 L 65 160 Z M 65 4.113281 " clip-rule="nonzero"/></clipPath><clipPath id="310e1b2d60"><path d="M 204 4.113281 L 266 4.113281 L 266 101 L 204 101 Z M 204 4.113281 " clip-rule="nonzero"/></clipPath><clipPath id="490aab6821"><path d="M 4.273438 4.113281 L 66 4.113281 L 66 101 L 4.273438 101 Z M 4.273438 4.113281 " clip-rule="nonzero"/></clipPath><clipPath id="e31ee4c35a"><path d="M 4.273438 167 L 266 167 L 266 265.863281 L 4.273438 265.863281 Z M 4.273438 167 " clip-rule="nonzero"/></clipPath></defs><rect x="-27" width="324" fill="#ffffff" y="-26.999999" height="323.999987" fill-opacity="1"/><rect x="-27" width="324" fill="#000000" y="-26.999999" height="323.999987" fill-opacity="1"/><g clip-path="url(#f679644130)"><path fill="#ba5d6f" d="M 68.207031 121.210938 C 71.066406 126.113281 76.171875 129.789062 82.914062 131.628906 C 86.589844 132.648438 90.675781 133.058594 94.964844 133.058594 C 98.640625 133.058594 102.726562 132.648438 106.8125 132.035156 C 113.347656 148.988281 123.558594 159.609375 134.996094 159.609375 C 146.4375 159.609375 156.648438 148.988281 163.390625 132.035156 C 167.472656 132.648438 171.558594 133.058594 175.234375 133.058594 C 179.523438 133.058594 183.609375 132.648438 187.285156 131.628906 C 194.027344 129.789062 199.132812 126.316406 201.992188 121.210938 C 207.710938 111 203.421875 96.496094 191.984375 81.996094 C 203.628906 67.289062 207.917969 52.988281 201.992188 42.777344 C 199.132812 37.875 194.027344 34.199219 187.285156 32.359375 C 180.546875 30.523438 172.375 30.523438 163.390625 31.953125 C 156.648438 15 146.4375 4.378906 134.996094 4.378906 C 123.558594 4.378906 113.347656 15 106.605469 31.953125 C 97.621094 30.523438 89.449219 30.523438 82.707031 32.359375 C 75.96875 34.199219 70.863281 37.671875 68.003906 42.777344 C 62.285156 52.988281 66.574219 67.492188 78.011719 81.996094 C 66.574219 96.699219 62.285156 111 68.207031 121.210938 Z M 108.648438 109.160156 C 111.304688 110.792969 113.960938 112.632812 116.613281 114.0625 C 119.269531 115.695312 122.128906 117.125 124.785156 118.554688 C 120.292969 120.191406 116.003906 121.414062 111.917969 122.4375 C 110.691406 118.554688 109.671875 114.0625 108.648438 109.160156 Z M 134.996094 151.441406 C 127.644531 151.441406 120.292969 143.679688 114.777344 130.402344 C 121.3125 128.769531 128.054688 126.523438 134.996094 123.457031 C 141.941406 126.523438 148.683594 128.769531 155.21875 130.402344 C 149.703125 143.679688 142.351562 151.441406 134.996094 151.441406 Z M 158.078125 122.640625 C 153.992188 121.621094 149.5 120.394531 145.210938 118.761719 C 147.867188 117.332031 150.726562 115.902344 153.378906 114.265625 C 156.035156 112.632812 158.691406 111 161.347656 109.363281 C 160.324219 114.0625 159.304688 118.554688 158.078125 122.640625 Z M 194.640625 117.125 C 192.800781 120.191406 189.738281 122.4375 185.039062 123.664062 C 179.730469 125.09375 173.191406 125.09375 166.042969 124.070312 C 168.085938 117.535156 169.515625 110.179688 170.539062 102.417969 C 176.460938 97.722656 181.773438 93.023438 186.46875 88.121094 C 195.457031 99.96875 198.316406 110.792969 194.640625 117.125 Z M 171.558594 72.804688 C 175.234375 75.867188 178.300781 78.929688 181.160156 81.996094 C 178.300781 85.058594 175.03125 88.121094 171.558594 91.1875 C 171.761719 88.121094 171.761719 85.058594 171.761719 81.996094 C 171.761719 78.929688 171.761719 75.867188 171.558594 72.804688 Z M 175.234375 39.101562 C 178.914062 39.101562 182.179688 39.507812 185.246094 40.328125 C 189.941406 41.550781 193.210938 43.796875 194.84375 46.863281 C 198.519531 53.398438 195.457031 64.019531 186.46875 75.867188 C 181.976562 70.964844 176.664062 66.0625 170.539062 61.570312 C 169.515625 53.808594 168.085938 46.453125 166.042969 39.917969 C 169.3125 39.304688 172.375 39.101562 175.234375 39.101562 Z M 161.347656 54.828125 C 158.691406 53.195312 156.035156 51.355469 153.378906 49.925781 C 150.726562 48.292969 147.867188 46.863281 145.210938 45.433594 C 149.703125 43.796875 153.992188 42.367188 158.078125 41.550781 C 159.304688 45.433594 160.324219 49.925781 161.347656 54.828125 Z M 134.996094 12.546875 C 142.148438 12.546875 149.703125 20.308594 155.21875 33.585938 C 148.683594 35.21875 141.941406 37.46875 134.996094 40.53125 C 128.054688 37.46875 121.3125 35.21875 114.777344 33.585938 C 120.292969 20.308594 127.847656 12.546875 134.996094 12.546875 Z M 111.917969 41.347656 C 116.003906 42.367188 120.496094 43.59375 124.785156 45.230469 C 122.128906 46.660156 119.269531 48.089844 116.613281 49.722656 C 113.960938 51.355469 111.304688 52.988281 108.648438 54.625 C 109.671875 49.925781 110.691406 45.433594 111.917969 41.347656 Z M 107.21875 65.859375 C 111.304688 62.792969 116.003906 59.730469 120.902344 56.871094 C 125.601562 54.011719 130.300781 51.558594 134.996094 49.519531 C 139.695312 51.765625 144.394531 54.214844 149.089844 56.871094 C 153.992188 59.730469 158.488281 62.792969 162.777344 65.859375 C 163.183594 70.964844 163.59375 76.273438 163.59375 81.996094 C 163.59375 87.714844 163.390625 93.023438 162.777344 98.128906 C 158.691406 101.195312 153.992188 104.257812 149.089844 107.117188 C 144.394531 109.976562 139.695312 112.429688 134.996094 114.472656 C 130.300781 112.222656 125.601562 109.773438 120.902344 107.117188 C 116.003906 104.257812 111.507812 101.195312 107.21875 98.128906 C 106.605469 93.023438 106.402344 87.714844 106.402344 81.996094 C 106.402344 76.273438 106.605469 70.964844 107.21875 65.859375 Z M 75.355469 46.863281 C 77.195312 43.796875 80.257812 41.550781 84.957031 40.328125 C 87.816406 39.507812 91.289062 39.101562 94.964844 39.101562 C 97.824219 39.101562 100.886719 39.304688 104.15625 39.714844 C 102.113281 46.25 100.683594 53.601562 99.660156 61.363281 C 93.738281 66.0625 88.429688 70.761719 83.730469 75.664062 C 74.539062 64.019531 71.679688 53.195312 75.355469 46.863281 Z M 98.4375 91.1875 C 94.757812 88.121094 91.695312 85.058594 88.835938 81.996094 C 91.695312 78.929688 94.964844 75.867188 98.4375 72.804688 C 98.230469 75.867188 98.230469 78.929688 98.230469 81.996094 C 98.230469 85.058594 98.230469 88.121094 98.4375 91.1875 Z M 83.730469 88.121094 C 88.222656 93.023438 93.535156 97.925781 99.660156 102.417969 C 100.683594 110.179688 102.113281 117.535156 104.15625 124.070312 C 96.800781 125.09375 90.265625 125.09375 85.160156 123.664062 C 80.460938 122.4375 77.195312 120.191406 75.558594 117.125 C 71.679688 110.792969 74.539062 99.96875 83.730469 88.121094 Z M 83.730469 88.121094 " fill-opacity="1" fill-rule="nonzero"/></g><path fill="#ba5d6f" d="M 134.996094 102.417969 C 146.230469 102.417969 155.421875 93.226562 155.421875 81.996094 C 155.421875 70.761719 146.230469 61.570312 134.996094 61.570312 C 123.765625 61.570312 114.574219 70.761719 114.574219 81.996094 C 114.574219 93.226562 123.765625 102.417969 134.996094 102.417969 Z M 134.996094 102.417969 " fill-opacity="1" fill-rule="nonzero"/><g clip-path="url(#310e1b2d60)"><path fill="#ba5d6f" d="M 222.828125 63.613281 C 212.613281 63.613281 204.445312 71.78125 204.445312 81.996094 C 204.445312 92.207031 212.613281 100.378906 222.828125 100.378906 C 233.039062 100.378906 241.210938 92.207031 241.210938 81.996094 C 241.210938 77.5 239.574219 73.414062 236.921875 70.148438 L 243.046875 62.183594 C 245.089844 63 247.132812 63.40625 249.378906 63.40625 C 258.367188 63.40625 265.71875 56.054688 265.71875 47.066406 C 265.71875 38.078125 258.367188 30.726562 249.378906 30.726562 C 246.113281 30.726562 243.253906 31.746094 240.597656 33.382812 L 231.609375 24.804688 C 232.632812 22.964844 233.039062 20.71875 233.039062 18.472656 C 233.039062 10.503906 226.707031 4.171875 218.742188 4.171875 C 210.777344 4.171875 204.445312 10.503906 204.445312 18.472656 C 204.445312 26.4375 210.777344 32.769531 218.742188 32.769531 C 221.398438 32.769531 223.847656 31.953125 225.890625 30.726562 L 234.878906 39.101562 C 233.652344 41.347656 232.835938 44.003906 232.835938 46.863281 C 232.835938 50.742188 234.0625 54.214844 236.308594 56.871094 L 230.179688 64.835938 C 228.136719 64.222656 225.480469 63.613281 222.828125 63.613281 Z M 222.828125 63.613281 " fill-opacity="1" fill-rule="nonzero"/></g><g clip-path="url(#490aab6821)"><path fill="#ba5d6f" d="M 20.617188 63.613281 C 22.863281 63.613281 25.109375 63.203125 26.949219 62.386719 L 33.074219 70.351562 C 30.417969 73.414062 28.785156 77.5 28.785156 81.996094 C 28.785156 92.207031 36.957031 100.378906 47.167969 100.378906 C 57.382812 100.378906 65.550781 92.207031 65.550781 81.996094 C 65.550781 71.78125 57.382812 63.613281 47.167969 63.613281 C 44.511719 63.613281 41.859375 64.222656 39.609375 65.246094 L 33.484375 57.28125 C 35.730469 54.421875 36.957031 50.949219 36.957031 47.269531 C 36.957031 44.410156 36.140625 41.757812 34.914062 39.507812 L 43.902344 31.136719 C 45.941406 32.359375 48.394531 33.175781 51.050781 33.175781 C 59.015625 33.175781 65.347656 26.84375 65.347656 18.878906 C 65.347656 10.914062 59.015625 4.582031 51.050781 4.582031 C 43.082031 4.582031 36.75 10.914062 36.75 18.878906 C 36.75 21.125 37.363281 23.375 38.179688 25.210938 L 29.195312 33.789062 C 26.742188 31.953125 23.882812 30.929688 20.617188 30.929688 C 11.628906 30.929688 4.273438 38.285156 4.273438 47.269531 C 4.273438 56.257812 11.628906 63.613281 20.617188 63.613281 Z M 20.617188 63.613281 " fill-opacity="1" fill-rule="nonzero"/></g><g clip-path="url(#e31ee4c35a)"><path fill="#ba5d6f" d="M 261.636719 204.546875 L 259.59375 204.546875 L 259.59375 193.515625 C 259.59375 191.679688 258.367188 190.042969 256.324219 189.433594 L 162.367188 168.191406 C 155.015625 166.554688 147.457031 169.414062 142.964844 175.953125 L 134.996094 188.613281 L 126.828125 175.746094 C 122.539062 169.414062 114.980469 166.554688 107.628906 168.191406 L 13.671875 189.433594 C 11.832031 189.839844 10.402344 191.472656 10.402344 193.515625 L 10.402344 204.546875 L 8.359375 204.546875 C 6.113281 204.546875 4.273438 206.386719 4.273438 208.632812 C 4.273438 210.878906 6.113281 212.71875 8.359375 212.71875 L 30.417969 212.71875 C 24.292969 218.230469 20.617188 226.402344 20.617188 235.183594 C 20.617188 252.136719 34.300781 265.824219 51.253906 265.824219 L 241.210938 265.824219 C 245.703125 265.824219 249.378906 262.144531 249.378906 257.652344 L 249.378906 249.484375 C 249.378906 244.988281 245.703125 241.3125 241.210938 241.3125 L 235.082031 241.3125 L 235.082031 229.058594 L 241.210938 229.058594 C 245.703125 229.058594 249.378906 225.378906 249.378906 220.886719 L 249.378906 212.71875 L 261.636719 212.71875 C 263.882812 212.71875 265.71875 210.878906 265.71875 208.632812 C 265.71875 206.386719 263.882812 204.546875 261.636719 204.546875 Z M 241.210938 220.886719 L 231.203125 220.886719 C 231.203125 220.886719 230.996094 220.886719 230.996094 220.886719 C 230.996094 220.886719 230.792969 220.886719 230.792969 220.886719 L 53.296875 220.886719 C 45.332031 220.886719 39 227.21875 39 235.183594 C 39 243.152344 45.332031 249.484375 53.296875 249.484375 L 241.210938 249.484375 L 241.210938 257.652344 L 51.253906 257.652344 C 38.792969 257.652344 28.785156 247.644531 28.785156 235.183594 C 28.785156 222.726562 38.792969 212.71875 51.253906 212.71875 L 241.210938 212.71875 Z M 241.210938 220.886719 " fill-opacity="1" fill-rule="nonzero"/></g></svg>