<svg xmlns="http://www.w3.org/2000/svg" xmlns:xlink="http://www.w3.org/1999/xlink" width="500" zoomAndPan="magnify" viewBox="0 0 375 374.999991" height="500" preserveAspectRatio="xMidYMid meet" version="1.0"><defs><clipPath id="0a0c4e66e4"><path d="M 233 259 L 344.71875 259 L 344.71875 371 L 233 371 Z M 233 259 " clip-rule="nonzero"/></clipPath></defs><path fill="#000000" d="M 287.15625 168.375 C 281.597656 160.390625 255.527344 121.054688 250.917969 101.9375 C 243.871094 72.746094 250.03125 71.507812 246.890625 55.632812 C 244.28125 42.457031 238.835938 33.488281 233.804688 26.441406 C 227.765625 19.394531 224.089844 16.367188 219.671875 13.679688 C 210.613281 8.644531 186.492188 1.277344 160.320312 15.371094 C 133.144531 29.460938 136.164062 59.660156 141.195312 121.0625 C 142.898438 140.441406 106.972656 178.441406 101.9375 189.511719 C 89.859375 212.664062 80.890625 237.277344 81.804688 252.929688 C 83.777344 296.386719 99.835938 353.25 150.253906 350.570312 C 154.28125 349.5625 171.394531 349.5625 186.492188 349.5625 C 207.632812 348.558594 219.710938 347.550781 236.824219 351.578125 C 265.613281 354.535156 305.445312 318.953125 313.328125 251.921875 C 317.253906 222.820312 303.261719 191.527344 287.15625 168.375 Z M 287.15625 168.375 " fill-opacity="1" fill-rule="nonzero"/><path fill="#eceff1" d="M 150.4375 122.582031 C 150.4375 122.582031 154.292969 152.460938 130.675781 185.226562 C 107.0625 217.988281 105.140625 256.058594 112.851562 276.785156 C 120.558594 297.511719 176.941406 373.640625 250.191406 298.46875 C 262.242188 285.9375 272.355469 228.601562 252.113281 189.5625 C 231.871094 150.527344 222.238281 119.695312 220.304688 110.050781 C 218.371094 100.40625 150.4375 122.582031 150.4375 122.582031 Z M 150.4375 122.582031 " fill-opacity="1" fill-rule="nonzero"/><path fill="#000000" d="M 263.359375 199.207031 C 263.359375 199.207031 254.441406 134.472656 282.957031 166.601562 C 324.882812 213.824219 291.152344 248.84375 285.203125 255.113281 C 277.84375 262.875 258.222656 267.695312 267.214844 244.996094 C 273.324219 229.566406 277.652344 212.695312 263.359375 199.207031 Z M 263.359375 199.207031 " fill-opacity="1" fill-rule="nonzero"/><path fill="#eceff1" d="M 253.082031 177.996094 C 253.082031 177.996094 301.265625 207.875 263.195312 253.816406 C 252.113281 267.304688 263.839844 272.769531 271.550781 265.058594 C 279.261719 257.347656 309.140625 203.707031 253.082031 177.996094 Z M 253.082031 177.996094 " fill-opacity="1" fill-rule="nonzero"/><path fill="#000000" d="M 116.082031 205.949219 C 116.082031 205.949219 146.792969 135.820312 117.5 167.238281 C 97.578125 188.597656 89.707031 230.863281 91.800781 247.230469 C 93.160156 257.84375 107.253906 272.257812 108.511719 247.875 C 109.800781 222.820312 113.011719 216.066406 116.082031 205.949219 Z M 116.082031 205.949219 " fill-opacity="1" fill-rule="nonzero"/><path fill="#eceff1" d="M 109.316406 243.539062 C 109.316406 243.539062 100.316406 226.195312 117.039062 187.5 C 92.605469 223.777344 97.265625 249.164062 108.1875 256.230469 C 118.988281 263.21875 114.460938 249.316406 109.316406 243.539062 Z M 109.316406 243.539062 " fill-opacity="1" fill-rule="nonzero"/><g clip-path="url(#0a0c4e66e4)"><path fill="#ffc107" d="M 337.484375 306.28125 C 333.457031 304.265625 326.414062 301.246094 320.371094 292.1875 C 317.351562 287.15625 318.359375 273.0625 313.328125 267.023438 C 310.304688 262.996094 306.28125 265.007812 305.273438 265.007812 C 296.214844 267.023438 275.074219 281.113281 260.984375 265.007812 C 258.96875 262.996094 255.949219 259.976562 250.917969 259.976562 C 245.882812 259.976562 243.871094 261.988281 241.855469 266.015625 C 239.84375 270.042969 239.84375 273.0625 239.84375 283.128906 C 239.84375 291.179688 239.84375 300.242188 238.835938 307.285156 C 236.824219 324.398438 233.804688 334.464844 233.804688 344.53125 C 233.804688 355.605469 236.824219 362.648438 240.851562 365.671875 C 243.871094 368.691406 248.902344 370.703125 259.976562 370.703125 C 271.046875 370.703125 278.09375 366.675781 285.140625 359.628906 C 290.175781 354.597656 294.199219 352.585938 308.292969 342.519531 C 319.367188 335.472656 336.476562 326.414062 339.5 323.390625 C 341.511719 321.378906 344.53125 320.371094 344.53125 314.332031 C 344.53125 309.300781 340.503906 307.285156 337.484375 306.28125 Z M 337.484375 306.28125 " fill-opacity="1" fill-rule="nonzero"/></g><path fill="#ffc107" d="M 135.15625 309.300781 C 125.089844 293.195312 124.082031 290.175781 117.039062 280.109375 C 110.996094 270.042969 97.910156 250.917969 89.859375 250.917969 C 83.820312 250.917969 80.800781 253.9375 76.773438 257.960938 C 72.746094 261.988281 68.71875 271.046875 61.671875 276.082031 C 55.632812 281.113281 38.523438 280.109375 34.496094 286.148438 C 30.46875 292.1875 38.523438 301.246094 38.523438 316.347656 C 38.523438 322.386719 33.488281 326.414062 32.480469 330.4375 C 31.476562 335.472656 30.46875 338.492188 32.480469 342.519531 C 36.507812 348.558594 41.542969 350.570312 75.765625 357.617188 C 93.886719 361.644531 110.996094 371.710938 122.070312 372.714844 C 133.144531 373.722656 152.269531 372.714844 152.269531 345.539062 C 153.273438 329.433594 144.214844 325.40625 135.15625 309.300781 Z M 135.15625 309.300781 " fill-opacity="1" fill-rule="nonzero"/><path fill="#eceff1" d="M 159.316406 61.671875 C 152.085938 61.664062 146.230469 70.671875 146.21875 81.796875 C 146.21875 92.917969 152.066406 101.9375 159.292969 101.9375 C 159.304688 101.9375 159.304688 101.9375 159.316406 101.9375 C 166.542969 101.949219 172.402344 92.9375 172.410156 81.816406 C 172.421875 70.691406 166.5625 61.671875 159.335938 61.671875 C 159.324219 61.671875 159.324219 61.671875 159.316406 61.671875 Z M 204.613281 57.648438 C 195.160156 57.648438 187.5 68.015625 187.5 80.800781 C 187.5 93.582031 195.160156 103.953125 204.613281 103.953125 C 214.066406 103.953125 221.726562 93.582031 221.726562 80.800781 C 221.726562 68.015625 214.0625 57.648438 204.613281 57.648438 Z M 204.613281 57.648438 " fill-opacity="1" fill-rule="nonzero"/><path fill="#212121" d="M 166.785156 82.867188 C 166.886719 83.652344 166.941406 84.4375 166.949219 85.222656 C 166.957031 86.003906 166.917969 86.769531 166.835938 87.519531 C 166.75 88.269531 166.621094 88.988281 166.449219 89.675781 C 166.277344 90.359375 166.066406 91.003906 165.808594 91.601562 C 165.554688 92.199219 165.265625 92.738281 164.9375 93.222656 C 164.613281 93.710938 164.257812 94.128906 163.871094 94.484375 C 163.484375 94.839844 163.078125 95.121094 162.644531 95.332031 C 162.214844 95.542969 161.769531 95.675781 161.3125 95.734375 C 160.851562 95.792969 160.386719 95.773438 159.917969 95.675781 C 159.449219 95.582031 158.984375 95.410156 158.519531 95.160156 C 158.058594 94.914062 157.609375 94.59375 157.171875 94.207031 C 156.734375 93.816406 156.320312 93.367188 155.925781 92.851562 C 155.527344 92.335938 155.164062 91.765625 154.824219 91.144531 C 154.488281 90.523438 154.183594 89.859375 153.917969 89.152344 C 153.648438 88.449219 153.421875 87.714844 153.234375 86.957031 C 153.046875 86.195312 152.90625 85.421875 152.804688 84.636719 C 152.707031 83.847656 152.652344 83.0625 152.644531 82.28125 C 152.636719 81.496094 152.671875 80.730469 152.757812 79.980469 C 152.839844 79.234375 152.96875 78.515625 153.140625 77.828125 C 153.3125 77.140625 153.527344 76.5 153.78125 75.902344 C 154.035156 75.304688 154.324219 74.761719 154.652344 74.277344 C 154.976562 73.792969 155.335938 73.371094 155.71875 73.019531 C 156.105469 72.664062 156.515625 72.378906 156.945312 72.171875 C 157.375 71.960938 157.820312 71.824219 158.28125 71.765625 C 158.738281 71.710938 159.203125 71.730469 159.671875 71.824219 C 160.144531 71.921875 160.609375 72.09375 161.070312 72.339844 C 161.53125 72.589844 161.984375 72.90625 162.417969 73.296875 C 162.855469 73.683594 163.273438 74.136719 163.667969 74.652344 C 164.0625 75.167969 164.429688 75.738281 164.765625 76.359375 C 165.105469 76.980469 165.40625 77.644531 165.675781 78.347656 C 165.941406 79.054688 166.167969 79.785156 166.355469 80.546875 C 166.542969 81.308594 166.6875 82.082031 166.785156 82.867188 Z M 166.785156 82.867188 " fill-opacity="1" fill-rule="nonzero"/><path fill="#212121" d="M 203.765625 71.417969 C 198.210938 71.417969 193.699219 77.265625 193.691406 84.492188 C 193.679688 91.722656 198.191406 97.578125 203.746094 97.589844 C 203.746094 97.589844 203.757812 97.589844 203.757812 97.589844 C 209.3125 97.589844 213.824219 91.742188 213.832031 84.511719 C 213.84375 77.285156 209.332031 71.425781 203.777344 71.417969 C 203.777344 71.417969 203.765625 71.417969 203.765625 71.417969 Z M 203.765625 71.417969 " fill-opacity="1" fill-rule="nonzero"/><path fill="#ffc107" d="M 154.28125 127.101562 C 148.242188 123.078125 143.210938 119.050781 143.210938 113.011719 C 143.210938 106.972656 147.234375 104.957031 153.273438 99.925781 C 154.28125 98.917969 165.355469 88.851562 176.425781 88.851562 C 187.5 88.851562 200.585938 95.898438 205.617188 97.910156 C 214.679688 99.925781 223.738281 101.9375 222.730469 108.984375 C 221.726562 119.050781 220.71875 121.0625 210.652344 126.097656 C 203.605469 128.109375 190.519531 139.183594 181.460938 139.183594 C 177.433594 139.183594 171.394531 139.183594 167.367188 138.175781 C 164.347656 137.167969 159.316406 132.136719 154.28125 127.101562 Z M 154.28125 127.101562 " fill-opacity="1" fill-rule="nonzero"/><path fill="#634703" d="M 148.445312 111.761719 C 148.445312 111.761719 158.148438 122.371094 171.574219 121.828125 C 185.003906 121.285156 203.867188 110.765625 211.488281 105.863281 C 214.839844 104.144531 216.207031 105.773438 213.027344 108.582031 C 209.472656 111.734375 186.824219 124.425781 177.746094 125.632812 C 175.027344 125.996094 166.683594 126.085938 164.316406 125.363281 C 161.953125 124.636719 149.753906 117.984375 147.175781 114.117188 C 145.183594 111.117188 147.992188 111.117188 148.445312 111.761719 Z M 148.445312 111.761719 " fill-opacity="1" fill-rule="nonzero"/><path fill="#634703" d="M 170.941406 98.152344 C 170.941406 98.152344 169.21875 98.304688 168.082031 99.683594 C 166.945312 101.0625 165.675781 98.886719 166.765625 97.699219 C 167.851562 96.511719 169.027344 95.164062 171.484375 95.886719 C 173.941406 96.613281 171.574219 97.972656 170.941406 98.152344 Z M 170.941406 98.152344 " fill-opacity="1" fill-rule="nonzero"/><path fill="#634703" d="M 183.675781 98.152344 C 183.675781 98.152344 185.394531 98.304688 186.535156 99.683594 C 187.671875 101.0625 188.941406 98.886719 187.851562 97.699219 C 186.765625 96.511719 185.585938 95.164062 183.132812 95.886719 C 180.675781 96.613281 183.039062 97.972656 183.675781 98.152344 Z M 183.675781 98.152344 " fill-opacity="1" fill-rule="nonzero"/></svg>