<svg xmlns="http://www.w3.org/2000/svg" xmlns:xlink="http://www.w3.org/1999/xlink" width="500" zoomAndPan="magnify" viewBox="0 0 375 374.999991" height="500" preserveAspectRatio="xMidYMid meet" version="1.0"><defs><g/></defs><g fill="#ffffff" fill-opacity="1"><g transform="translate(157.186914, 295.383744)"><g><path d="M 60.875 -102.625 C 60.28125 -104.53125 59.984375 -106.175781 59.984375 -107.5625 C 59.984375 -108.957031 60.054688 -110.53125 60.203125 -112.28125 C 60.359375 -114.039062 60.691406 -116.457031 61.203125 -119.53125 C 61.710938 -122.613281 62.695312 -125.65625 64.15625 -128.65625 C 65.625 -131.664062 67.3125 -134.5625 69.21875 -137.34375 C 71.125 -140.125 73.578125 -142.6875 76.578125 -145.03125 C 79.585938 -147.375 82.921875 -149.425781 86.578125 -151.1875 C 94.347656 -155 103.796875 -156.90625 114.921875 -156.90625 C 137.335938 -156.90625 155.613281 -149.46875 169.75 -134.59375 C 183.894531 -119.726562 190.96875 -100.71875 190.96875 -77.5625 C 190.96875 -54.414062 182.613281 -35.1875 165.90625 -19.875 C 149.207031 -4.570312 128.039062 3.078125 102.40625 3.078125 C 76.769531 3.078125 55.488281 -4.535156 38.5625 -19.765625 C 21.644531 -35.003906 13.1875 -54.785156 13.1875 -79.109375 C 13.1875 -94.785156 16.847656 -108.703125 24.171875 -120.859375 C 31.492188 -133.023438 41.96875 -142.550781 55.59375 -149.4375 L 56.921875 -147.453125 C 47.390625 -141.148438 40.535156 -132.066406 36.359375 -120.203125 C 32.191406 -108.335938 30.109375 -95.738281 30.109375 -82.40625 C 30.109375 -57.644531 36.847656 -38.304688 50.328125 -24.390625 C 63.804688 -10.472656 81.09375 -3.515625 102.1875 -3.515625 C 123.28125 -3.515625 140.53125 -10.507812 153.9375 -24.5 C 167.34375 -38.488281 174.046875 -56.910156 174.046875 -79.765625 C 174.046875 -99.546875 168.734375 -116.25 158.109375 -129.875 C 147.484375 -143.5 132.503906 -150.3125 113.171875 -150.3125 C 104.523438 -150.3125 96.6875 -148.769531 89.65625 -145.6875 C 76.914062 -140.269531 68.492188 -131.335938 64.390625 -118.890625 C 63.210938 -115.222656 62.625 -112.070312 62.625 -109.4375 C 62.625 -106.800781 62.769531 -104.675781 63.0625 -103.0625 Z M 60.875 -102.625 "/></g></g></g><g fill="#ffffff" fill-opacity="1"><g transform="translate(39.0064, 212.180392)"><g><path d="M 241.71875 35.59375 C 242.601562 35.59375 243.484375 35.59375 244.359375 35.59375 L 244.359375 37.796875 C 240.253906 38.378906 235.675781 38.671875 230.625 38.671875 C 225.570312 38.671875 219.34375 37.570312 211.9375 35.375 C 204.539062 33.175781 197.84375 29.078125 191.84375 23.078125 C 179.53125 10.765625 172.054688 -5.203125 169.421875 -24.828125 L 156.015625 -122.625 L 110.3125 -19.34375 C 106.207031 -10.40625 103.71875 -2.929688 102.84375 3.078125 L 100.640625 3.078125 L 43.734375 -120.640625 L 34.0625 -11.421875 C 33.769531 -8.929688 34.535156 -6.734375 36.359375 -4.828125 C 38.191406 -2.929688 40.207031 -1.984375 42.40625 -1.984375 L 45.921875 -1.984375 L 45.921875 0 L 3.296875 0 L 3.296875 -2.203125 L 6.8125 -2.203125 C 10.769531 -2.203125 14.25 -3.410156 17.25 -5.828125 C 20.25 -8.242188 22.117188 -11.425781 22.859375 -15.375 L 36.703125 -135.359375 C 23.804688 -160.703125 8.347656 -173.375 -9.671875 -173.375 C -11.285156 -173.375 -12.96875 -173.300781 -14.71875 -173.15625 L -14.71875 -175.359375 C -10.769531 -176.390625 -7.546875 -176.90625 -5.046875 -176.90625 C -2.554688 -176.90625 0.148438 -176.789062 3.078125 -176.5625 C 6.003906 -176.34375 9.445312 -175.644531 13.40625 -174.46875 C 17.363281 -173.300781 21.097656 -171.582031 24.609375 -169.3125 C 28.128906 -167.039062 31.207031 -164.695312 33.84375 -162.28125 C 36.476562 -159.863281 38.96875 -157.191406 41.3125 -154.265625 C 45.269531 -148.992188 48.421875 -143.941406 50.765625 -139.109375 L 103.71875 -24.390625 L 162.828125 -156.90625 L 164.8125 -156.90625 L 185.25 -26.8125 C 188.320312 -6.300781 194.945312 9.222656 205.125 19.765625 C 215.3125 30.316406 227.507812 35.59375 241.71875 35.59375 Z M 241.71875 35.59375 "/></g></g></g></svg>