<svg xmlns="http://www.w3.org/2000/svg" xmlns:xlink="http://www.w3.org/1999/xlink" width="500" zoomAndPan="magnify" viewBox="0 0 375 374.999991" height="500" preserveAspectRatio="xMidYMid meet" version="1.0"><path fill="#00678c" d="M -0.726562 258.480469 L 12.230469 258.480469 L 12.230469 207.199219 L 32.46875 251.90625 C 34.757812 257.28125 38.050781 259.273438 44.429688 259.273438 C 50.804688 259.273438 53.902344 257.28125 56.269531 251.90625 L 76.40625 207.199219 L 76.40625 258.480469 L 89.460938 258.480469 L 89.460938 207.199219 C 89.460938 202.21875 87.46875 199.824219 83.28125 198.53125 C 73.414062 195.542969 66.832031 198.132812 63.84375 204.800781 L 44.011719 249.015625 L 24.871094 204.800781 C 21.980469 198.132812 15.300781 195.542969 5.335938 198.53125 C 1.246094 199.824219 -0.746094 202.21875 -0.746094 207.199219 L -0.75 258.480469 Z M 100.25 216.757812 L 113.308594 216.757812 L 113.308594 244.9375 C 113.207031 246.53125 113.804688 250.117188 120.902344 250.210938 C 124.589844 250.3125 149.011719 250.210938 149.207031 250.210938 L 149.207031 216.554688 L 162.265625 216.554688 L 162.265625 262.660156 C 162.265625 274.011719 148.191406 276.5 141.632812 276.601562 L 100.570312 276.601562 L 100.570312 267.941406 L 141.738281 267.941406 C 150.109375 267.042969 149.113281 262.863281 149.113281 261.46875 L 149.113281 258.082031 L 121.5 258.082031 C 108.640625 257.980469 100.367188 252.304688 100.269531 245.832031 L 100.269531 216.75 Z M 380.332031 184.09375 C 372.363281 183.890625 366.179688 184.691406 360.996094 186.882812 C 359.503906 187.484375 357.109375 187.484375 356.910156 189.375 C 357.710938 190.167969 357.804688 191.460938 358.503906 192.5625 C 359.699219 194.554688 361.796875 197.238281 363.6875 198.632812 C 365.78125 200.226562 367.875 201.820312 370.066406 203.214844 C 373.953125 205.601562 378.339844 206.996094 382.125 209.386719 C 384.320312 210.78125 386.511719 212.574219 388.703125 214.070312 C 389.820312 214.867188 390.5 216.164062 391.894531 216.660156 L 391.894531 216.355469 C 391.199219 215.464844 390.996094 214.167969 390.300781 213.167969 C 389.304688 212.175781 388.308594 211.277344 387.308594 210.285156 C 384.417969 206.402344 380.828125 203.011719 376.941406 200.226562 C 373.753906 198.035156 366.777344 195.050781 365.480469 191.367188 L 365.285156 191.164062 C 367.472656 190.964844 370.066406 190.167969 372.160156 189.570312 C 375.550781 188.675781 378.640625 188.875 382.125 187.980469 C 383.722656 187.578125 385.316406 187.082031 386.914062 186.585938 L 386.914062 185.691406 C 385.117188 183.898438 383.824219 181.507812 381.929688 179.816406 C 376.847656 175.4375 371.261719 171.152344 365.480469 167.570312 C 362.390625 165.578125 358.402344 164.28125 355.117188 162.589844 C 353.914062 161.992188 351.925781 161.695312 351.226562 160.699219 C 349.429688 158.511719 348.4375 155.621094 347.140625 153.03125 C 344.25 147.554688 341.457031 141.480469 338.96875 135.703125 C 337.171875 131.820312 336.074219 127.9375 333.886719 124.351562 C 323.617188 107.425781 312.453125 97.167969 295.308594 87.109375 C 291.621094 85.019531 287.234375 84.121094 282.574219 83.027344 L 275.097656 82.625 C 273.5 81.929688 271.90625 80.035156 270.511719 79.136719 C 264.832031 75.554688 250.175781 67.785156 245.988281 78.042969 C 243.296875 84.515625 249.976562 90.890625 252.242188 94.175781 C 253.941406 96.464844 256.128906 99.054688 257.332031 101.644531 C 258 103.335938 258.222656 105.128906 258.921875 106.921875 C 260.515625 111.304688 262.011719 116.183594 264.105469 120.269531 C 265.222656 122.359375 266.394531 124.554688 267.792969 126.445312 C 268.589844 127.539062 269.988281 128.039062 270.285156 129.832031 C 268.886719 131.824219 268.792969 134.808594 267.992188 137.300781 C 264.402344 148.554688 265.800781 162.492188 270.882812 170.753906 C 272.480469 173.246094 276.242188 178.722656 281.351562 176.628906 C 285.835938 174.835938 284.835938 169.160156 286.132812 164.183594 C 286.433594 162.988281 286.234375 162.191406 286.828125 161.394531 L 286.828125 161.59375 L 290.917969 169.859375 C 294.007812 174.738281 299.390625 179.816406 303.875 183.203125 C 306.265625 184.996094 308.160156 188.085938 311.148438 189.179688 L 311.148438 188.878906 L 310.953125 188.878906 C 310.355469 187.984375 309.457031 187.582031 308.65625 186.886719 C 306.863281 185.09375 304.871094 182.902344 303.476562 180.914062 C 299.289062 175.335938 295.605469 169.160156 292.3125 162.789062 C 290.714844 159.703125 289.320312 156.316406 288.027344 153.230469 C 287.425781 152.035156 287.425781 150.242188 286.429688 149.648438 C 284.933594 151.832031 282.746094 153.730469 281.644531 156.417969 C 279.75 160.699219 279.550781 165.976562 278.855469 171.453125 C 278.453125 171.554688 278.632812 171.453125 278.453125 171.65625 C 275.269531 170.859375 274.167969 167.570312 272.972656 164.785156 C 269.984375 157.714844 269.484375 146.363281 272.074219 138.199219 C 272.773438 136.105469 275.765625 129.535156 274.570312 127.542969 C 273.96875 125.648438 271.980469 124.554688 270.878906 123.0625 C 269.585938 121.167969 268.191406 118.78125 267.292969 116.6875 C 264.902344 111.109375 263.707031 104.9375 261.113281 99.359375 C 259.914062 96.773438 257.824219 94.082031 256.128906 91.695312 C 254.234375 89.003906 252.144531 87.113281 250.648438 83.925781 C 250.148438 82.832031 249.453125 81.039062 250.25 79.84375 C 250.449219 79.046875 250.847656 78.75 251.644531 78.546875 C 252.9375 77.457031 256.628906 78.847656 257.925781 79.441406 C 261.609375 80.9375 264.699219 82.328125 267.789062 84.417969 C 269.1875 85.414062 270.683594 87.304688 272.476562 87.804688 L 274.574219 87.804688 C 277.761719 88.503906 281.347656 88.007812 284.335938 88.898438 C 289.621094 90.597656 294.402344 93.082031 298.691406 95.773438 C 311.746094 104.039062 322.515625 115.789062 329.789062 129.832031 C 330.984375 132.121094 331.484375 134.214844 332.582031 136.605469 C 334.679688 141.484375 337.269531 146.460938 339.359375 151.246094 C 341.453125 155.925781 343.445312 160.707031 346.4375 164.589844 C 347.933594 166.683594 353.910156 167.777344 356.601562 168.871094 C 358.597656 169.765625 361.683594 170.566406 363.480469 171.660156 C 366.867188 173.753906 370.257812 176.144531 373.445312 178.433594 C 375.039062 179.625 380.027344 182.117188 380.324219 184.101562 Z M 278.683594 97.558594 C 277.300781 97.546875 275.9375 97.714844 274.601562 98.058594 L 274.601562 98.257812 L 274.796875 98.257812 C 275.59375 99.851562 276.988281 100.949219 277.988281 102.34375 L 280.28125 107.125 L 280.476562 106.921875 C 281.875 105.925781 282.574219 104.332031 282.574219 101.945312 C 281.972656 101.25 281.875 100.550781 281.378906 99.855469 C 280.777344 98.859375 279.484375 98.359375 278.683594 97.5625 Z M 278.683594 97.558594 " fill-opacity="1" fill-rule="evenodd"/><path fill="#ce8b2c" d="M 172.21875 258.480469 L 209.695312 258.480469 C 214.082031 258.480469 218.269531 257.585938 221.65625 255.988281 C 227.339844 253.402344 230.03125 249.917969 230.03125 245.335938 L 230.03125 235.777344 C 230.03125 232.097656 226.941406 228.609375 220.761719 226.21875 C 217.574219 225.027344 213.585938 224.328125 209.699219 224.328125 L 193.949219 224.328125 C 188.664062 224.328125 186.171875 222.730469 185.472656 219.25 C 185.375 218.851562 185.375 218.453125 185.375 218.054688 L 185.375 212.179688 C 185.375 211.878906 185.375 211.484375 185.472656 211.085938 C 186.171875 208.394531 187.566406 207.699219 192.175781 207.203125 L 230.550781 207.203125 L 230.550781 198.535156 L 194.066406 198.535156 C 188.785156 198.535156 185.996094 198.835938 183.5 199.632812 C 175.824219 202.023438 172.4375 205.808594 172.4375 212.476562 L 172.4375 220.046875 C 172.4375 225.917969 179.015625 230.902344 190.179688 232.097656 C 191.375 232.195312 192.667969 232.195312 193.964844 232.195312 L 207.421875 232.195312 C 207.921875 232.195312 208.417969 232.195312 208.816406 232.296875 C 212.902344 232.695312 214.699219 233.390625 215.894531 234.882812 C 216.691406 235.679688 216.890625 236.375 216.890625 237.273438 L 216.890625 244.839844 C 216.890625 245.734375 216.292969 246.933594 215.097656 247.925781 C 213.902344 248.917969 212.003906 249.617188 209.511719 249.71875 C 209.015625 249.71875 208.71875 249.820312 208.214844 249.820312 L 172.21875 249.820312 Z M 311.164062 243.445312 C 311.164062 252.304688 317.867188 257.28125 331.203125 258.28125 C 332.5 258.382812 333.695312 258.480469 334.992188 258.480469 L 368.882812 258.480469 L 368.882812 249.820312 L 334.695312 249.820312 C 327.113281 249.820312 324.226562 247.925781 324.226562 243.347656 L 324.226562 198.535156 L 311.132812 198.535156 L 311.132812 243.445312 Z M 238.300781 243.839844 L 238.300781 212.972656 C 238.300781 205.105469 243.882812 200.324219 254.75 198.832031 C 255.945312 198.730469 257.140625 198.632812 258.234375 198.632812 L 282.953125 198.632812 C 284.25 198.632812 285.347656 198.730469 286.644531 198.832031 C 297.507812 200.324219 302.988281 205.105469 302.988281 212.972656 L 302.988281 243.839844 C 302.988281 250.210938 300.699219 253.601562 295.3125 255.890625 L 308.066406 267.441406 L 293.019531 267.441406 L 282.652344 258.082031 L 272.183594 258.679688 L 258.230469 258.679688 C 255.664062 258.667969 253.136719 258.335938 250.65625 257.6875 C 242.390625 255.390625 238.300781 251.011719 238.300781 243.839844 Z M 252.351562 243.148438 C 252.351562 243.546875 252.578125 243.941406 252.65625 244.441406 C 253.351562 248.023438 256.738281 250.019531 261.921875 250.019531 L 273.6875 250.019531 L 262.921875 240.257812 L 277.972656 240.257812 L 287.4375 248.824219 C 289.238281 247.824219 290.332031 246.429688 290.730469 244.640625 C 290.832031 244.242188 290.832031 243.746094 290.832031 243.34375 L 290.832031 213.769531 C 290.832031 213.371094 290.832031 212.976562 290.730469 212.574219 C 290.03125 209.191406 286.644531 207.300781 281.5625 207.300781 L 261.921875 207.300781 C 256.140625 207.300781 252.355469 209.789062 252.355469 213.769531 Z M 252.351562 243.148438 " fill-opacity="1" fill-rule="evenodd"/></svg>