<svg xmlns="http://www.w3.org/2000/svg" xmlns:xlink="http://www.w3.org/1999/xlink" width="360" zoomAndPan="magnify" viewBox="0 0 270 269.999989" height="360" preserveAspectRatio="xMidYMid meet" version="1.0"><defs><clipPath id="8919638e5f"><path d="M 2 2 L 268.351562 2 L 268.351562 270 L 2 270 Z M 2 2 " clip-rule="nonzero"/></clipPath></defs><g clip-path="url(#8919638e5f)"><path fill="#ffffff" d="M 193 269.984375 C 192.121094 269.984375 191.253906 269.898438 190.390625 269.726562 C 189.53125 269.554688 188.695312 269.300781 187.882812 268.964844 C 187.074219 268.628906 186.304688 268.21875 185.574219 267.730469 C 184.84375 267.242188 184.167969 266.6875 183.546875 266.070312 C 182.929688 265.449219 182.375 264.773438 181.886719 264.042969 C 181.398438 263.3125 180.988281 262.542969 180.652344 261.734375 C 180.316406 260.921875 180.0625 260.085938 179.890625 259.226562 C 179.71875 258.363281 179.632812 257.496094 179.632812 256.617188 L 179.632812 221.871094 C 179.84375 219.871094 179.839844 217.875 179.628906 215.875 C 179.417969 213.878906 179 211.921875 178.378906 210.011719 C 177.757812 208.101562 176.945312 206.277344 175.941406 204.535156 C 174.933594 202.796875 173.761719 201.179688 172.417969 199.683594 C 171.585938 198.78125 170.890625 197.785156 170.335938 196.691406 C 169.777344 195.597656 169.378906 194.449219 169.136719 193.246094 C 168.898438 192.042969 168.824219 190.828125 168.917969 189.605469 C 169.011719 188.382812 169.269531 187.191406 169.691406 186.039062 C 170.109375 184.886719 170.679688 183.8125 171.398438 182.816406 C 172.113281 181.820312 172.953125 180.941406 173.910156 180.175781 C 174.871094 179.410156 175.917969 178.789062 177.046875 178.3125 C 178.179688 177.835938 179.351562 177.519531 180.570312 177.367188 C 213.179688 173.488281 243.25 163.066406 243.25 106.535156 C 243.253906 101.253906 242.496094 96.089844 240.96875 91.035156 C 239.445312 85.980469 237.21875 81.257812 234.296875 76.863281 C 232.960938 74.859375 231.832031 72.746094 230.910156 70.523438 C 229.988281 68.296875 229.292969 66.003906 228.824219 63.640625 C 228.355469 61.28125 228.117188 58.894531 228.117188 56.488281 C 228.117188 54.078125 228.347656 51.695312 228.816406 49.332031 C 230.03125 43.050781 230.03125 36.769531 228.816406 30.488281 C 218.75 33.890625 209.4375 38.75 200.882812 45.054688 C 200.082031 45.625 199.222656 46.101562 198.316406 46.484375 C 197.40625 46.863281 196.464844 47.140625 195.496094 47.316406 C 194.523438 47.488281 193.546875 47.554688 192.5625 47.511719 C 191.578125 47.46875 190.609375 47.316406 189.65625 47.0625 C 183.65625 45.363281 177.566406 44.089844 171.390625 43.234375 C 165.214844 42.378906 159.007812 41.949219 152.769531 41.949219 C 146.535156 41.949219 140.328125 42.378906 134.152344 43.234375 C 127.976562 44.089844 121.886719 45.363281 115.886719 47.0625 C 114.933594 47.316406 113.964844 47.46875 112.980469 47.511719 C 111.996094 47.554688 111.019531 47.488281 110.046875 47.316406 C 109.078125 47.140625 108.136719 46.863281 107.226562 46.484375 C 106.320312 46.101562 105.460938 45.625 104.660156 45.054688 C 96.046875 38.671875 86.648438 33.816406 76.460938 30.488281 C 75.175781 36.769531 75.175781 43.050781 76.460938 49.332031 C 76.894531 51.726562 77.09375 54.136719 77.066406 56.570312 C 77.035156 59 76.773438 61.40625 76.28125 63.789062 C 75.789062 66.171875 75.074219 68.484375 74.136719 70.726562 C 73.203125 72.972656 72.058594 75.105469 70.710938 77.132812 C 67.800781 81.554688 65.582031 86.304688 64.058594 91.378906 C 62.535156 96.453125 61.765625 101.636719 61.757812 106.933594 C 61.757812 158.921875 86.882812 172.820312 124.570312 177.632812 C 125.804688 177.785156 126.992188 178.105469 128.136719 178.589844 C 129.28125 179.074219 130.339844 179.707031 131.304688 180.484375 C 132.273438 181.265625 133.117188 182.160156 133.835938 183.175781 C 134.550781 184.1875 135.117188 185.28125 135.53125 186.453125 C 135.917969 187.589844 136.152344 188.757812 136.222656 189.957031 C 136.296875 191.15625 136.210938 192.347656 135.964844 193.523438 C 135.714844 194.699219 135.316406 195.820312 134.769531 196.886719 C 134.21875 197.957031 133.539062 198.933594 132.722656 199.820312 C 131.425781 201.207031 130.28125 202.714844 129.292969 204.34375 C 128.308594 205.96875 127.496094 207.679688 126.863281 209.472656 C 126.230469 211.265625 125.789062 213.105469 125.539062 214.992188 C 125.289062 216.878906 125.234375 218.769531 125.375 220.667969 L 125.375 256.617188 C 125.375 257.496094 125.289062 258.363281 125.117188 259.226562 C 124.945312 260.085938 124.691406 260.921875 124.355469 261.734375 C 124.019531 262.542969 123.609375 263.3125 123.121094 264.042969 C 122.632812 264.773438 122.078125 265.449219 121.460938 266.070312 C 120.839844 266.6875 120.164062 267.242188 119.433594 267.730469 C 118.703125 268.21875 117.933594 268.628906 117.125 268.964844 C 116.3125 269.300781 115.476562 269.554688 114.617188 269.726562 C 113.757812 269.898438 112.886719 269.984375 112.007812 269.984375 C 111.132812 269.984375 110.261719 269.898438 109.402344 269.726562 C 108.542969 269.554688 107.707031 269.300781 106.894531 268.964844 C 106.085938 268.628906 105.3125 268.21875 104.585938 267.730469 C 103.855469 267.242188 103.179688 266.6875 102.558594 266.070312 C 101.9375 265.449219 101.382812 264.773438 100.898438 264.042969 C 100.410156 263.3125 99.996094 262.542969 99.660156 261.734375 C 99.324219 260.921875 99.074219 260.085938 98.902344 259.226562 C 98.730469 258.363281 98.644531 257.496094 98.644531 256.617188 L 98.644531 249 C 95.375 249.375 92.09375 249.550781 88.800781 249.523438 C 85.507812 249.496094 82.230469 249.265625 78.964844 248.832031 C 75.703125 248.402344 72.476562 247.769531 69.292969 246.941406 C 66.105469 246.113281 62.980469 245.089844 59.921875 243.878906 C 56.859375 242.664062 53.886719 241.265625 51 239.6875 C 48.109375 238.105469 45.328125 236.355469 42.65625 234.433594 C 39.984375 232.511719 37.441406 230.429688 35.023438 228.195312 C 32.605469 225.960938 30.335938 223.582031 28.214844 221.066406 C 23.789062 216.167969 18.621094 212.246094 12.710938 209.308594 C 11.859375 209.089844 11.035156 208.789062 10.246094 208.40625 C 9.453125 208.027344 8.703125 207.570312 8 207.042969 C 7.296875 206.515625 6.65625 205.921875 6.066406 205.265625 C 5.480469 204.613281 4.964844 203.90625 4.519531 203.148438 C 4.070312 202.390625 3.703125 201.597656 3.410156 200.769531 C 3.121094 199.9375 2.914062 199.089844 2.792969 198.21875 C 2.667969 197.347656 2.632812 196.472656 2.679688 195.59375 C 2.730469 194.71875 2.863281 193.851562 3.082031 193 C 3.300781 192.148438 3.601562 191.328125 3.984375 190.535156 C 4.367188 189.742188 4.820312 188.996094 5.347656 188.292969 C 5.878906 187.589844 6.46875 186.945312 7.125 186.359375 C 7.78125 185.773438 8.488281 185.257812 9.246094 184.8125 C 10 184.367188 10.796875 183.996094 11.625 183.707031 C 12.453125 183.417969 13.304688 183.210938 14.175781 183.085938 C 15.046875 182.964844 15.921875 182.925781 16.796875 182.976562 C 17.675781 183.027344 18.539062 183.160156 19.390625 183.378906 C 24.53125 185.253906 29.363281 187.726562 33.890625 190.804688 C 38.414062 193.878906 42.492188 197.464844 46.121094 201.554688 C 59.484375 214.921875 72.851562 226.679688 98.242188 221.871094 C 97.792969 214.617188 98.816406 207.578125 101.316406 200.753906 C 73.785156 193.804688 34.496094 174.023438 34.496094 107.203125 C 34.484375 103.265625 34.765625 99.351562 35.332031 95.457031 C 35.902344 91.5625 36.75 87.730469 37.882812 83.960938 C 39.015625 80.191406 40.417969 76.523438 42.089844 72.960938 C 43.757812 69.398438 45.683594 65.976562 47.859375 62.695312 C 48.671875 61.480469 49.226562 60.15625 49.527344 58.722656 C 49.828125 57.289062 49.851562 55.851562 49.597656 54.410156 C 48.925781 50.824219 48.511719 47.207031 48.363281 43.558594 C 48.210938 39.910156 48.324219 36.273438 48.695312 32.640625 C 49.070312 29.011719 49.703125 25.425781 50.589844 21.886719 C 51.480469 18.34375 52.617188 14.886719 54.007812 11.511719 C 54.386719 10.605469 54.859375 9.753906 55.425781 8.953125 C 55.992188 8.152344 56.640625 7.421875 57.367188 6.761719 C 58.09375 6.105469 58.886719 5.535156 59.738281 5.050781 C 60.59375 4.566406 61.488281 4.179688 62.425781 3.894531 C 66.96875 2.554688 83.273438 -0.117188 114.148438 19.929688 C 120.375 18.433594 126.667969 17.304688 133.027344 16.550781 C 139.382812 15.796875 145.765625 15.417969 152.171875 15.417969 C 158.574219 15.417969 164.957031 15.796875 171.316406 16.550781 C 177.671875 17.304688 183.964844 18.433594 190.191406 19.929688 C 221.066406 -0.117188 237.371094 2.421875 241.78125 3.894531 C 242.71875 4.179688 243.613281 4.566406 244.46875 5.050781 C 245.320312 5.535156 246.113281 6.105469 246.839844 6.761719 C 247.566406 7.421875 248.214844 8.152344 248.78125 8.953125 C 249.347656 9.753906 249.820312 10.605469 250.199219 11.511719 C 251.589844 14.898438 252.730469 18.367188 253.621094 21.917969 C 254.511719 25.46875 255.144531 29.066406 255.519531 32.707031 C 255.890625 36.351562 256 40 255.851562 43.660156 C 255.699219 47.316406 255.285156 50.945312 254.609375 54.542969 C 254.332031 55.863281 254.324219 57.179688 254.578125 58.5 C 254.832031 59.824219 255.332031 61.042969 256.082031 62.164062 C 258.261719 65.453125 260.191406 68.882812 261.867188 72.457031 C 263.539062 76.03125 264.945312 79.707031 266.078125 83.488281 C 267.207031 87.269531 268.054688 91.113281 268.621094 95.019531 C 269.183594 98.925781 269.460938 102.855469 269.445312 106.800781 C 269.445312 174.558594 230.421875 194.207031 202.621094 200.351562 C 205.09375 207.597656 206.074219 215.035156 205.5625 222.671875 L 205.5625 256.617188 C 205.5625 257.464844 205.484375 258.300781 205.328125 259.128906 C 205.171875 259.960938 204.9375 260.769531 204.625 261.554688 C 204.316406 262.339844 203.933594 263.089844 203.480469 263.800781 C 203.027344 264.515625 202.511719 265.179688 201.933594 265.796875 C 201.355469 266.410156 200.726562 266.96875 200.042969 267.464844 C 199.355469 267.957031 198.632812 268.386719 197.867188 268.746094 C 197.101562 269.101562 196.3125 269.386719 195.492188 269.59375 C 194.671875 269.804688 193.84375 269.933594 193 269.984375 Z M 193 269.984375 " fill-opacity="1" fill-rule="nonzero"/></g></svg>