<svg xmlns="http://www.w3.org/2000/svg" xmlns:xlink="http://www.w3.org/1999/xlink" width="500" zoomAndPan="magnify" viewBox="0 0 375 374.999991" height="500" preserveAspectRatio="xMidYMid meet" version="1.0"><defs><clipPath id="4a77f9194f"><path d="M 94 150 L 339 150 L 339 243.777344 L 94 243.777344 Z M 94 150 " clip-rule="nonzero"/></clipPath><clipPath id="289560952b"><path d="M 195 95.277344 L 281 95.277344 L 281 243 L 195 243 Z M 195 95.277344 " clip-rule="nonzero"/></clipPath><clipPath id="eb0856c5e0"><path d="M 94 150 L 180 150 L 180 243.777344 L 94 243.777344 Z M 94 150 " clip-rule="nonzero"/></clipPath><clipPath id="348f6a9ce9"><path d="M 1 149 L 374 149 L 374 243.777344 L 1 243.777344 Z M 1 149 " clip-rule="nonzero"/></clipPath></defs><g clip-path="url(#4a77f9194f)"><path fill="#388e3c" d="M 134.796875 150.648438 L 96.742188 171.757812 C 95.3125 172.542969 94.4375 174.007812 94.4375 175.585938 L 94.4375 217.824219 C 94.4375 219.402344 95.3125 220.855469 96.742188 221.652344 L 134.804688 242.773438 C 136.222656 243.558594 137.984375 243.558594 139.402344 242.773438 L 177.457031 221.652344 C 178.867188 220.855469 179.746094 219.402344 179.746094 217.824219 L 179.746094 175.585938 C 179.746094 174.007812 178.867188 172.550781 177.441406 171.757812 L 139.394531 150.648438 C 138.679688 150.253906 137.882812 150.058594 137.089844 150.058594 C 136.292969 150.058594 135.5 150.253906 134.789062 150.648438 M 330.59375 188.675781 L 324.246094 192.191406 C 324.007812 192.324219 323.867188 192.566406 323.867188 192.828125 L 323.867188 199.871094 C 323.867188 200.136719 324.015625 200.378906 324.246094 200.511719 L 330.59375 204.03125 C 330.832031 204.164062 331.121094 204.164062 331.359375 204.03125 L 337.703125 200.511719 C 337.9375 200.378906 338.082031 200.136719 338.082031 199.871094 L 338.082031 192.828125 C 338.082031 192.566406 337.9375 192.324219 337.695312 192.191406 L 331.351562 188.675781 C 331.234375 188.605469 331.105469 188.574219 330.972656 188.574219 C 330.839844 188.574219 330.707031 188.605469 330.59375 188.675781 " fill-opacity="1" fill-rule="nonzero"/></g><g clip-path="url(#289560952b)"><path fill="#37474f" d="M 278.632812 105.882812 L 260.105469 95.519531 C 259.523438 95.191406 258.808594 95.199219 258.234375 95.542969 C 257.660156 95.882812 257.304688 96.5 257.304688 97.167969 L 257.296875 159.769531 L 240.210938 150.292969 C 239.5 149.894531 238.699219 149.703125 237.910156 149.703125 C 237.117188 149.703125 236.320312 149.894531 235.605469 150.292969 L 235.613281 150.292969 L 197.558594 171.402344 C 196.132812 172.1875 195.253906 173.648438 195.253906 175.21875 L 195.253906 217.460938 C 195.253906 219.039062 196.132812 220.492188 197.558594 221.285156 L 235.621094 242.410156 C 237.039062 243.195312 238.800781 243.195312 240.21875 242.410156 L 278.273438 221.285156 C 279.6875 220.5 280.5625 219.039062 280.5625 217.460938 L 280.5625 109.179688 C 280.5625 107.8125 279.816406 106.550781 278.632812 105.882812 Z M 256.257812 207.6875 L 238.964844 217.289062 C 238.320312 217.644531 237.519531 217.644531 236.878906 217.289062 L 219.574219 207.6875 C 218.917969 207.328125 218.519531 206.660156 218.519531 205.945312 L 218.519531 186.742188 C 218.519531 186.027344 218.917969 185.363281 219.566406 185 L 236.871094 175.40625 L 236.863281 175.40625 C 237.1875 175.226562 237.542969 175.140625 237.910156 175.140625 C 238.273438 175.140625 238.628906 175.234375 238.957031 175.40625 L 256.25 185 C 256.902344 185.363281 257.296875 186.035156 257.296875 186.75 L 257.296875 205.953125 C 257.296875 206.660156 256.902344 207.328125 256.257812 207.6875 Z M 256.257812 207.6875 " fill-opacity="1" fill-rule="nonzero"/></g><g clip-path="url(#eb0856c5e0)"><path fill="#2e7d32" d="M 134.796875 150.648438 L 94.4375 217.824219 C 94.4375 219.402344 95.3125 220.855469 96.742188 221.652344 L 134.804688 242.773438 C 136.222656 243.558594 137.984375 243.558594 139.402344 242.773438 L 179.746094 175.585938 C 179.746094 174.007812 178.867188 172.550781 177.441406 171.757812 L 139.394531 150.648438 C 138.679688 150.253906 137.882812 150.058594 137.089844 150.058594 C 136.292969 150.058594 135.5 150.253906 134.789062 150.648438 " fill-opacity="1" fill-rule="nonzero"/><path fill="#4caf50" d="M 134.796875 150.648438 L 96.742188 171.757812 C 95.3125 172.542969 94.4375 174.007812 94.4375 175.585938 L 134.796875 242.773438 C 136.214844 243.558594 137.976562 243.558594 139.394531 242.773438 L 177.449219 221.652344 C 178.867188 220.855469 179.746094 219.402344 179.746094 217.824219 L 139.394531 150.648438 C 138.679688 150.253906 137.882812 150.058594 137.089844 150.058594 C 136.292969 150.058594 135.5 150.253906 134.789062 150.648438 " fill-opacity="1" fill-rule="nonzero"/></g><g clip-path="url(#348f6a9ce9)"><path fill="#37474f" d="M 371.324219 171.402344 L 333.273438 150.292969 C 332.5625 149.894531 331.761719 149.703125 330.972656 149.703125 C 330.179688 149.703125 329.382812 149.894531 328.667969 150.292969 L 328.675781 150.292969 L 290.621094 171.402344 C 289.203125 172.1875 288.316406 173.679688 288.316406 175.3125 L 288.316406 217.382812 C 288.316406 219.007812 289.203125 220.507812 290.621094 221.292969 L 328.683594 242.417969 C 330.109375 243.210938 331.855469 243.210938 333.28125 242.417969 L 350.832031 232.675781 C 352.4375 231.78125 352.429688 229.472656 350.816406 228.585938 L 312.628906 207.695312 C 311.988281 207.328125 311.582031 206.652344 311.582031 205.921875 L 311.582031 186.75 C 311.582031 186.035156 311.972656 185.371094 312.59375 185.03125 L 329.925781 175.421875 L 329.917969 175.421875 C 330.242188 175.242188 330.597656 175.15625 330.964844 175.15625 C 331.328125 175.15625 331.683594 175.25 332.011719 175.421875 L 349.34375 185.039062 C 349.964844 185.378906 350.351562 186.042969 350.351562 186.757812 L 350.351562 202.398438 C 350.351562 203.070312 350.707031 203.691406 351.289062 204.023438 C 351.871094 204.351562 352.585938 204.351562 353.167969 204.015625 L 371.765625 193.1875 C 372.914062 192.519531 373.625 191.28125 373.625 189.945312 L 373.625 175.328125 C 373.625 173.6875 372.742188 172.1875 371.324219 171.402344 Z M 84.378906 171.402344 L 46.332031 150.292969 C 45.617188 149.894531 44.820312 149.703125 44.027344 149.703125 C 43.238281 149.703125 42.4375 149.894531 41.726562 150.292969 L 41.734375 150.292969 L 3.675781 171.402344 C 2.257812 172.1875 1.375 173.679688 1.375 175.3125 L 1.375 233.351562 C 1.375 234.019531 1.730469 234.640625 2.3125 234.976562 C 2.894531 235.304688 3.609375 235.304688 4.191406 234.96875 L 22.785156 224.136719 C 23.933594 223.46875 24.640625 222.234375 24.640625 220.894531 L 24.640625 186.742188 C 24.640625 186.027344 25.027344 185.363281 25.648438 185.023438 L 42.980469 175.414062 C 43.308594 175.234375 43.664062 175.148438 44.027344 175.148438 C 44.394531 175.148438 44.75 175.242188 45.074219 175.414062 L 62.40625 185.03125 C 63.027344 185.371094 63.417969 186.035156 63.417969 186.75 L 63.417969 220.902344 C 63.417969 222.242188 64.121094 223.476562 65.277344 224.144531 L 83.875 234.976562 C 84.457031 235.3125 85.167969 235.3125 85.75 234.984375 C 86.324219 234.640625 86.683594 234.019531 86.683594 233.351562 L 86.683594 175.320312 C 86.683594 173.6875 85.796875 172.1875 84.378906 171.402344 Z M 84.378906 171.402344 " fill-opacity="1" fill-rule="nonzero"/></g></svg>