<svg xmlns="http://www.w3.org/2000/svg" xmlns:xlink="http://www.w3.org/1999/xlink" width="500" zoomAndPan="magnify" viewBox="0 0 375 374.999991" height="500" preserveAspectRatio="xMidYMid meet" version="1.0"><defs><clipPath id="20d29ff214"><path d="M 10 0 L 366.984375 0 L 366.984375 372 L 10 372 Z M 10 0 " clip-rule="nonzero"/></clipPath></defs><path fill="#000000" d="M 342.273438 231.152344 C 342.273438 231.171875 342.265625 231.183594 342.242188 231.183594 C 342.222656 231.183594 342.210938 231.171875 342.210938 231.152344 C 342.210938 231.132812 342.222656 231.121094 342.242188 231.121094 C 342.265625 231.121094 342.273438 231.132812 342.273438 231.152344 Z M 342.273438 231.152344 " fill-opacity="1" fill-rule="nonzero"/><path fill="#32648d" d="M 296.378906 228.207031 L 296.410156 228.238281 L 296.410156 228.253906 L 296.363281 228.269531 C 294.121094 229.089844 292.261719 229.433594 290.699219 230.128906 C 289.101562 230.765625 287.816406 231.925781 287.058594 233.414062 L 287.042969 233.445312 C 286.082031 235.226562 285.246094 238.386719 285.496094 243.765625 C 286.128906 244.230469 286.90625 244.585938 287.695312 244.835938 L 287.757812 244.851562 C 290.371094 245.65625 294.753906 246.183594 299.648438 246.105469 C 309.402344 245.996094 321.417969 243.6875 327.796875 240.683594 C 333.292969 238.0625 338 234.902344 342.195312 231.152344 C 320.890625 235.613281 308.859375 234.421875 301.472656 231.335938 C 299.554688 230.5 297.867188 229.460938 296.378906 228.207031 Z M 296.378906 228.207031 " fill-opacity="1" fill-rule="nonzero"/><path fill="#32648d" d="M 274.53125 64.324219 L 274.625 64.460938 L 274.734375 64.585938 Z M 274.53125 64.324219 " fill-opacity="1" fill-rule="nonzero"/><path fill="#32648d" d="M 193.042969 299.054688 C 193.027344 298.667969 193.042969 298.265625 193.027344 297.878906 C 193.027344 297.722656 193.011719 297.613281 193.011719 297.457031 Z M 193.042969 299.054688 " fill-opacity="1" fill-rule="nonzero"/><path fill="#32648d" d="M 176.707031 230.671875 C 175.808594 230.222656 174.753906 229.898438 173.625 229.742188 L 173.578125 229.742188 L 173.578125 229.710938 L 173.253906 229.710938 C 172.449219 229.789062 171.273438 230.066406 168.980469 232.625 C 163.652344 238.667969 161.796875 242.464844 157.398438 246.011719 C 153 249.546875 147.304688 251.4375 135.90625 253.808594 C 132.300781 254.550781 130.222656 255.371094 128.863281 256.039062 C 129.3125 256.410156 129.265625 256.503906 129.929688 256.859375 C 131.601562 257.789062 133.738281 258.609375 135.472656 259.058594 C 140.367188 260.300781 148.417969 261.742188 156.808594 260.300781 C 165.203125 258.84375 173.933594 254.765625 181.382812 244.183594 C 182.667969 242.355469 182.808594 239.660156 181.753906 236.761719 C 180.703125 233.863281 178.347656 231.367188 176.707031 230.671875 Z M 176.707031 230.671875 " fill-opacity="1" fill-rule="nonzero"/><path fill="#32648d" d="M 239.230469 23.273438 L 238.347656 23.445312 C 238.640625 23.382812 238.964844 23.351562 239.261719 23.289062 C 239.246094 23.289062 239.246094 23.273438 239.230469 23.273438 Z M 239.230469 23.273438 " fill-opacity="1" fill-rule="nonzero"/><path fill="#32648d" d="M 282.304688 106.921875 C 271.917969 107.0625 266.09375 109.773438 263.027344 113.320312 C 258.691406 118.355469 258.289062 127.191406 260.984375 138.066406 C 263.664062 148.960938 269.191406 161.140625 274.394531 171.261719 C 276.996094 176.328125 279.519531 180.882812 281.546875 184.585938 C 283.589844 188.304688 285.09375 190.941406 286.007812 193.1875 C 286.84375 195.261719 287.785156 197.09375 288.730469 198.796875 C 292.757812 190.195312 293.46875 181.75 293.066406 172.949219 C 292.539062 162.054688 290.03125 150.914062 290.402344 139.632812 C 290.820312 126.445312 293.390625 117.863281 293.609375 107.664062 C 290.21875 107.199219 286.285156 106.921875 282.304688 106.921875 Z M 284.226562 114.761719 L 284.210938 114.886719 C 284.210938 114.933594 284.210938 114.980469 284.210938 115.042969 C 284.210938 115.753906 284.007812 116.4375 283.652344 116.992188 L 283.667969 116.976562 C 283.1875 117.863281 282.632812 118.636719 281.980469 119.300781 C 280.464844 120.992188 278.433594 122.167969 276.144531 122.574219 L 276.082031 122.585938 C 275.757812 122.632812 275.382812 122.648438 274.996094 122.648438 C 273.046875 122.648438 271.25 122.03125 269.78125 120.976562 L 269.808594 120.992188 C 269.050781 120.464844 268.386719 119.859375 267.84375 119.179688 L 267.828125 119.164062 C 267.347656 118.636719 267.007812 117.953125 266.867188 117.226562 L 266.867188 117.195312 C 266.867188 117.117188 266.851562 117.039062 266.851562 116.960938 C 266.851562 116.296875 267.101562 115.675781 267.519531 115.210938 C 268.015625 114.636719 268.601562 114.171875 269.285156 113.832031 L 269.316406 113.816406 C 270.785156 112.980469 272.769531 112.359375 275.011719 112.019531 C 275.847656 111.894531 276.683594 111.832031 277.460938 111.816406 L 277.460938 111.863281 L 278.21875 111.863281 C 279.222656 111.894531 280.152344 112.003906 280.972656 112.207031 C 281.792969 112.390625 282.507812 112.671875 283.078125 113.058594 C 283.652344 113.445312 284.085938 114.035156 284.226562 114.761719 Z M 284.226562 114.761719 " fill-opacity="1" fill-rule="nonzero"/><path fill="#32648d" d="M 111.90625 175.210938 C 111.90625 172.421875 112.125 169.695312 112.527344 167.015625 L 112.496094 167.308594 C 114.074219 155.855469 114.292969 145.148438 114.105469 136.6875 C 113.921875 128.445312 113.332031 122.960938 113.332031 119.535156 C 113.332031 119.488281 113.332031 119.441406 113.332031 119.394531 C 113.332031 119.347656 113.332031 119.289062 113.332031 119.242188 L 113.332031 119.164062 L 113.316406 119.070312 L 113.316406 119.054688 C 113.316406 119.023438 113.316406 119.007812 113.316406 118.976562 C 113.316406 100.628906 116.535156 83.042969 122.375 66.726562 C 126.664062 55.195312 133.042969 43.496094 142.597656 34.011719 C 133.195312 30.882812 116.535156 26.109375 98.484375 25.210938 C 96.75 25.117188 94.71875 25.058594 92.691406 25.058594 L 92.675781 25.058594 L 92.675781 25.074219 C 90.742188 25.074219 88.789062 25.132812 86.871094 25.242188 C 71.417969 26.140625 56.800781 30.683594 46.363281 41.902344 C 35.898438 53.121094 29.007812 71.511719 30.507812 101.960938 C 30.804688 107.726562 33.28125 123.875 37.523438 143.058594 C 41.78125 162.242188 47.773438 184.820312 54.988281 204.761719 C 62.21875 224.707031 70.984375 242.0625 79.3125 250.273438 C 83.511719 254.378906 87.148438 256.039062 90.445312 255.898438 C 93.761719 255.742188 97.753906 253.808594 102.632812 247.871094 C 112.214844 236.1875 121.273438 225.851562 130.625 215.8125 L 130.316406 216.136719 C 119.015625 206.140625 111.90625 191.527344 111.90625 175.210938 Z M 111.90625 175.210938 " fill-opacity="1" fill-rule="nonzero"/><path fill="#32648d" d="M 194.265625 24.296875 L 194.265625 24.265625 C 176.179688 24.3125 163.21875 29.84375 153.371094 38.136719 C 143.230469 46.703125 136.433594 58.433594 131.957031 70.445312 C 126.648438 84.699219 124.835938 98.492188 124.109375 107.851562 L 124.308594 107.726562 C 129.773438 104.628906 136.945312 101.527344 144.625 99.730469 C 152.304688 97.933594 160.574219 97.390625 168.066406 100.335938 C 175.5625 103.28125 181.753906 110.207031 184 120.710938 C 194.761719 171.183594 180.65625 189.949219 175.453125 204.113281 C 173.796875 208.1875 172.078125 213.425781 170.636719 218.769531 L 170.390625 219.808594 C 171.039062 219.652344 171.707031 219.46875 172.355469 219.40625 C 176.023438 219.097656 178.90625 220.335938 180.609375 221.078125 C 185.84375 223.28125 189.433594 227.898438 191.371094 233.167969 C 191.878906 234.546875 192.238281 236.03125 192.453125 237.566406 C 192.65625 238.09375 192.761719 238.714844 192.761719 239.347656 C 192.761719 239.410156 192.761719 239.472656 192.761719 239.535156 C 192.515625 247.28125 192.359375 256.378906 192.359375 265.523438 C 192.359375 276.351562 192.578125 287.136719 192.980469 297.878906 C 193.335938 306.027344 193.847656 313.25 194.480469 318.9375 C 195.148438 324.730469 196.078125 329.117188 196.664062 330.605469 C 198.617188 335.5625 201.480469 342.054688 206.652344 346.472656 C 211.824219 350.871094 219.242188 353.816406 232.789062 350.871094 C 244.539062 348.316406 251.789062 344.765625 256.632812 339.667969 C 261.480469 334.570312 264.359375 327.472656 266.203125 316.613281 C 268.972656 300.339844 274.53125 253.15625 275.214844 244.277344 C 274.90625 237.582031 275.878906 232.4375 278 228.515625 C 280.167969 224.488281 283.542969 222.023438 286.441406 220.691406 C 287.894531 220.027344 289.257812 219.578125 290.371094 219.25 C 289.011719 217.28125 287.785156 215.640625 286.515625 214.042969 L 286.65625 214.214844 C 282.644531 209.316406 279.222656 203.691406 276.640625 197.632812 L 276.46875 197.183594 C 274.90625 193.945312 273.589844 191.496094 272.210938 189.097656 L 272.535156 189.699219 C 270.507812 185.980469 267.9375 181.332031 265.242188 176.109375 C 259.855469 165.652344 254 152.976562 250.949219 140.625 C 247.917969 128.289062 247.484375 115.523438 255.253906 106.519531 C 262.128906 98.523438 274.222656 95.207031 292.355469 97.066406 C 291.828125 95.4375 291.503906 94.089844 290.589844 91.921875 C 286.175781 81.539062 280.867188 72.582031 274.5625 64.460938 C 259.1875 44.597656 234.335938 24.933594 195.96875 24.296875 Z M 194.265625 24.296875 " fill-opacity="1" fill-rule="nonzero"/><path fill="#32648d" d="M 123.890625 120.402344 L 123.921875 120.386719 L 123.96875 120.339844 Z M 123.890625 120.402344 " fill-opacity="1" fill-rule="nonzero"/><path fill="#32648d" d="M 146.652344 109.914062 L 146.808594 109.898438 L 146.929688 109.851562 Z M 146.652344 109.914062 " fill-opacity="1" fill-rule="nonzero"/><path fill="#32648d" d="M 165.835938 200.46875 C 172.046875 183.515625 184.261719 171.152344 173.980469 122.898438 C 172.292969 114.996094 168.964844 111.800781 164.382812 110.003906 C 162.152344 109.183594 159.566406 108.703125 156.855469 108.703125 C 156.6875 108.703125 156.5 108.703125 156.328125 108.703125 L 156.359375 108.703125 C 153.0625 108.734375 149.875 109.152344 146.808594 109.898438 C 140.304688 111.539062 134.574219 113.863281 129.25 116.839844 C 127.25 117.9375 125.53125 119.085938 123.921875 120.371094 L 123.628906 120.652344 C 123.722656 122.914062 124.15625 128.398438 124.339844 136.472656 C 124.527344 145.304688 124.308594 156.570312 122.621094 168.765625 C 118.96875 195.261719 137.949219 217.207031 160.246094 217.238281 C 161.5625 211.796875 163.699219 206.28125 165.835938 200.46875 Z M 152.660156 123.472656 C 151.933594 122.726562 151.34375 121.890625 150.863281 120.976562 L 150.832031 120.914062 C 150.429688 120.261719 150.199219 119.472656 150.199219 118.621094 C 150.199219 118.464844 150.214844 118.3125 150.230469 118.15625 L 150.230469 118.171875 C 150.460938 116.496094 151.824219 115.628906 153.140625 115.148438 C 154.363281 114.746094 155.726562 114.515625 157.179688 114.515625 C 157.398438 114.515625 157.613281 114.515625 157.863281 114.53125 L 157.847656 114.46875 C 158.652344 114.46875 159.519531 114.546875 160.386719 114.667969 C 162.726562 114.996094 164.816406 115.628906 166.394531 116.558594 C 167.183594 116.992188 167.867188 117.535156 168.40625 118.1875 L 168.421875 118.203125 C 168.949219 118.808594 169.257812 119.597656 169.257812 120.480469 C 169.257812 120.605469 169.257812 120.726562 169.242188 120.851562 L 169.242188 120.835938 C 169.089844 121.765625 168.671875 122.574219 168.097656 123.222656 C 167.460938 123.996094 166.75 124.664062 165.945312 125.222656 L 165.914062 125.238281 C 164.351562 126.382812 162.382812 127.066406 160.261719 127.066406 C 159.84375 127.066406 159.425781 127.035156 159.023438 126.988281 L 159.070312 126.988281 C 156.5 126.554688 154.300781 125.285156 152.660156 123.472656 Z M 152.660156 123.472656 " fill-opacity="1" fill-rule="nonzero"/><path fill="#32648d" d="M 128.9375 116.992188 C 129.046875 116.933594 129.15625 116.902344 129.25 116.839844 C 129.265625 116.839844 129.28125 116.824219 129.296875 116.808594 Z M 128.9375 116.992188 " fill-opacity="1" fill-rule="nonzero"/><path fill="#32648d" d="M 282.816406 58.140625 C 289.519531 66.742188 295.328125 76.535156 299.800781 87.039062 L 300.128906 87.890625 C 301.816406 91.984375 302.945312 95.4375 303.582031 98.121094 C 303.90625 99.46875 304.121094 100.597656 304.199219 101.777344 C 304.230469 102.367188 304.261719 102.96875 304.015625 104.007812 C 304.015625 104.054688 303.9375 104.164062 303.921875 104.210938 C 304.386719 117.785156 301.054688 126.988281 300.667969 139.941406 C 300.359375 149.332031 302.730469 160.367188 303.316406 172.40625 C 303.875 183.71875 302.527344 196.148438 295.265625 208.34375 C 295.886719 209.085938 296.425781 209.828125 297.015625 210.574219 C 316.199219 179.96875 330.027344 146.109375 337.398438 117.242188 C 341.34375 101.699219 343.433594 87.613281 343.621094 76.457031 C 343.777344 65.300781 341.71875 57.210938 339.117188 53.832031 C 318.585938 27.242188 290.820312 20.46875 267.535156 20.285156 L 267.535156 20.300781 L 265.304688 20.300781 C 256.324219 20.4375 247.652344 21.476562 239.277344 23.289062 C 258.289062 31.84375 272.691406 45.015625 282.816406 58.140625 Z M 282.816406 58.140625 " fill-opacity="1" fill-rule="nonzero"/><g clip-path="url(#20d29ff214)"><path fill="#000000" d="M 196.820312 3.996094 L 196.664062 3.996094 C 178.640625 3.6875 163.171875 8.121094 150.679688 15.496094 C 138.382812 11.171875 112.882812 3.71875 85.988281 5.207031 C 67.265625 6.246094 46.828125 12.007812 31.6875 28.203125 C 16.589844 44.394531 8.613281 69.453125 10.289062 103.542969 C 10.75 112.949219 13.398438 128.289062 17.78125 148.15625 C 22.179688 168.023438 28.339844 191.28125 36.035156 212.496094 C 43.730469 233.722656 52.15625 252.785156 65.332031 265.738281 C 71.914062 272.230469 80.96875 277.6875 91.640625 277.238281 C 99.132812 276.925781 105.898438 273.59375 111.753906 268.683594 C 114.601562 272.480469 117.636719 274.136719 120.40625 275.671875 C 123.890625 277.609375 127.28125 278.925781 130.796875 279.792969 C 137.113281 281.390625 147.921875 283.527344 160.589844 281.34375 C 164.90625 280.613281 169.445312 279.1875 173.964844 277.160156 C 174.136719 282.273438 174.335938 287.277344 174.523438 292.34375 C 175.15625 308.398438 175.546875 323.226562 180.296875 336.230469 C 181.058594 338.351562 183.164062 349.292969 191.417969 358.945312 C 199.667969 368.617188 215.863281 374.644531 234.289062 370.644531 C 247.296875 367.824219 263.816406 362.742188 274.8125 346.90625 C 285.664062 331.253906 290.558594 308.800781 291.535156 272.386719 C 291.78125 270.417969 292.074219 268.746094 292.371094 267.179688 L 294.957031 267.414062 L 295.265625 267.414062 C 309.140625 268.046875 324.1875 266.046875 336.761719 260.128906 C 347.894531 254.90625 356.316406 249.621094 362.464844 240.246094 C 363.996094 237.921875 365.671875 235.117188 366.132812 230.285156 C 366.597656 225.449219 363.859375 217.886719 359.304688 214.402344 C 350.203125 207.398438 344.488281 210.0625 338.355469 211.347656 C 332.890625 212.632812 326.574219 213.441406 320.101562 213.609375 L 319.976562 213.609375 C 337.660156 183.441406 350.339844 151.394531 357.570312 123.039062 C 361.859375 106.300781 364.261719 90.867188 364.445312 77.371094 C 364.648438 63.875 363.5625 51.925781 355.574219 41.589844 C 330.628906 9.296875 295.558594 0.371094 268.417969 0.0625 C 267.582031 0.046875 266.730469 0.03125 265.894531 0.046875 L 265.894531 0 C 251.121094 0.125 236.90625 2.355469 223.453125 6.335938 L 222.816406 6.554688 C 215.042969 5.097656 206.015625 4.167969 196.820312 3.996094 Z M 233.5 13.867188 C 242.976562 11.527344 253.878906 10.117188 265.085938 9.980469 L 265.179688 9.980469 L 265.195312 9.917969 C 290.867188 9.667969 323.648438 16.96875 347.199219 47.449219 C 352.492188 54.296875 354.074219 64.308594 353.886719 76.640625 C 353.6875 88.960938 351.441406 103.714844 347.320312 119.875 C 339.332031 151.175781 324.25 187.671875 303.007812 220.414062 C 303.703125 220.925781 304.507812 221.375 305.34375 221.714844 L 305.421875 221.746094 C 309.851562 223.605469 319.960938 225.203125 340.136719 221.003906 C 345.214844 219.917969 348.933594 219.1875 352.789062 222.164062 C 354.523438 223.652344 355.605469 225.851562 355.605469 228.316406 C 355.605469 228.472656 355.605469 228.625 355.589844 228.78125 L 355.589844 228.765625 C 355.359375 230.734375 354.660156 232.5 353.59375 233.972656 C 349.691406 239.90625 341.996094 245.53125 332.148438 250.164062 C 323.414062 254.289062 310.890625 256.441406 299.785156 256.566406 C 294.210938 256.628906 289.085938 256.191406 284.722656 254.8125 L 284.441406 254.707031 C 282.753906 271.132812 278.882812 303.5625 276.359375 318.363281 C 274.347656 330.292969 270.816406 339.777344 264.066406 346.875 C 257.332031 353.972656 247.808594 358.25 234.988281 361.039062 C 219.117188 364.492188 207.535156 360.773438 200.070312 354.40625 C 192.625 348.050781 189.21875 339.621094 187.15625 334.460938 C 185.75 330.898438 185.019531 326.28125 184.308594 320.113281 C 183.597656 313.945312 183.085938 306.398438 182.730469 297.890625 C 182.390625 289.246094 182.203125 279.082031 182.203125 268.867188 C 182.203125 265.507812 182.234375 262.160156 182.265625 258.796875 C 175.871094 264.746094 167.789062 268.929688 158.808594 270.527344 L 158.527344 270.574219 C 147.984375 272.386719 138.585938 270.605469 132.964844 269.179688 C 129.976562 268.417969 127.375 267.351562 124.929688 266.015625 C 122.359375 264.621094 119.914062 263.027344 118.269531 259.914062 C 117.621094 258.71875 117.234375 257.277344 117.234375 255.757812 C 117.234375 255.15625 117.296875 254.550781 117.417969 253.992188 C 117.976562 251.917969 119.136719 250.148438 120.734375 248.910156 L 120.75 248.894531 C 123.78125 246.398438 127.777344 245.003906 133.832031 243.734375 C 144.824219 241.441406 148.664062 239.875 151.003906 238 C 152.984375 236.390625 155.246094 233.136719 159.210938 228.363281 C 159.195312 228.222656 159.179688 227.992188 159.164062 227.773438 L 159.164062 227.726562 C 151.667969 227.511719 144.6875 225.480469 138.585938 222.054688 L 138.816406 222.179688 C 136.527344 224.628906 124.804688 237.179688 110.527344 254.597656 C 104.519531 261.878906 97.878906 266.0625 90.878906 266.359375 C 83.882812 266.652344 77.546875 263.089844 72.160156 257.804688 C 61.398438 247.222656 52.820312 229.011719 45.34375 208.433594 C 37.878906 187.855469 31.808594 164.9375 27.488281 145.414062 C 23.152344 125.886719 20.613281 110.144531 20.242188 102.550781 C 18.632812 70.289062 26.082031 48.546875 38.855469 34.835938 C 51.644531 21.121094 69.171875 15.929688 86.25 14.9375 C 116.921875 13.15625 146.035156 23.988281 151.933594 26.3125 C 163.296875 18.503906 177.929688 13.636719 196.183594 13.945312 C 205.382812 14.085938 214.222656 15.308594 222.679688 17.496094 L 221.902344 17.324219 L 222.214844 17.183594 C 225.171875 16.070312 228.949219 14.9375 232.820312 14.007812 Z M 233.5 13.867188 " fill-opacity="1" fill-rule="nonzero"/></g></svg>